<?xml version="1.0" encoding="UTF-8"?>
<svg id="Layer_2" data-name="Layer 2" xmlns="http://www.w3.org/2000/svg" viewBox="0 0 233.94 89.92">
  <defs>
    <style>
      .cls-1 {
        isolation: isolate;
      }

      .cls-2 {
        fill: #fff;
        stroke-width: 0px;
      }
    </style>
  </defs>
  <g id="Logo">
    <g>
      <g class="cls-1">
        <g class="cls-1">
          <path class="cls-2" d="M27.41,43.35c0,1.65,1.12,2.4,2.47,2.4h6.75v7.65H.86v-7.65h6.97c1.27,0,2.4-.75,2.4-2.4V11.77c0-1.65-1.12-2.4-2.4-2.4H.86V1.72h40.8c11.47,0,22.27,4.35,22.27,15.07,0,8.7-7.72,15.07-18,15.07h-18.52v11.47ZM27.41,24.3h10.5c5.85,0,8.55-3.3,8.55-7.65,0-4.05-2.62-7.28-8.32-7.28h-10.72v14.92Z"/>
          <path class="cls-2" d="M100.46,0c6.52,0,13.87,1.65,18.22,4.42l2.1-3.45h7.8v20.47h-8.4c-2.02-8.25-7.65-13.2-17.25-13.2-14.25,0-17.32,9.97-17.32,19.65,0,8.85,3.22,18.6,16.72,18.6,6.45,0,10.95-3,10.95-6.22v-3c0-2.4-.9-3.6-3.07-3.6h-6.6v-7.5h35.32v7.5h-4.57c-1.95,0-3.83.45-3.83,2.78v16.95h-8.7l-2.48-4.65c-4.2,4.57-12.82,6.22-20.25,6.22-19.12,0-31.8-11.47-31.8-27.22S81.26,0,100.46,0Z"/>
          <path class="cls-2" d="M206.66,43.35V12.37l-18.52,41.02h-9.15l-18.37-40.95v31.65c0,.9,1.2,1.65,2.55,1.65h5.7v7.65h-27v-7.65h6.97c1.2,0,2.4-.75,2.4-1.65V12.82c0-2.25-.9-3.45-3.08-3.45h-6.3V1.72h31.57l13.8,30.22,13.95-30.22h31.87v7.65h-6.3c-2.1,0-2.92.9-2.92,2.48v31.5c0,1.65,1.2,2.4,2.55,2.4h6.75v7.65h-35.02v-7.65h6.07c1.28,0,2.48-.75,2.48-2.4Z"/>
        </g>
      </g>
      <g class="cls-1">
        <g class="cls-1">
          <path class="cls-2" d="M11.55,71.6c6.52,0,11.32,3.5,11.32,9.17s-4.65,9.1-11.42,9.1c-6.42,0-11.45-3.47-11.45-9.1s4.67-9.17,11.55-9.17ZM11.37,87.25c4.52,0,5.07-3.52,5.07-6.4s-.35-6.6-5-6.6-5.12,3.75-5.12,6.52.62,6.47,5.05,6.47Z"/>
          <path class="cls-2" d="M46.07,75.53v7.92c0,4.77-3.62,6.35-9.12,6.35-4.25,0-8.67-1.5-8.67-5.95v-8.32c0-.55-.4-.8-.82-.8h-2.3v-2.55h11.95v2.55h-2.25c-.45,0-.85.25-.85.8v8.42c0,2.32,1.35,3.2,3.67,3.2,3.4,0,5.27-.35,5.27-3.87v-7.75c0-.55-.4-.8-.85-.8h-2.12v-2.55h9.22v2.55h-2.3c-.43,0-.83.25-.83.8Z"/>
          <path class="cls-2" d="M65.17,86.05c0,.55.4.8.85.8h2.27v2.55h-11.95v-2.55h2.27c.4,0,.82-.25.82-.8v-11.22h-1.97c-2.8,0-2.95,2.3-3.15,4.27h-2.67v-6.92h21.39v6.92h-2.62c-.2-2.05-.38-4.27-3.3-4.27h-1.95v11.22Z"/>
          <path class="cls-2" d="M88.17,86.85v2.55h-12.07v-2.55h2.32c.42,0,.8-.25.8-.8v-10.4c0-.62-.43-.92-.92-.92h-2.2v-2.55h20.94v6.85h-2.72c-.27-1.78-.1-4.3-2.55-4.3h-6.8v4.45h2.2c.92,0,1.52-.72,1.52-1.6v-1h2.7v7.8h-2.7v-.85c0-1.12-.52-1.75-1.5-1.75h-2.22v4.27c0,.55.4.8.85.8h2.35Z"/>
          <path class="cls-2" d="M108.9,86.05c0,.55.4.8.85.8h2.3v2.55h-12v-2.55h2.3c.43,0,.8-.25.8-.8v-10.52c0-.55-.37-.8-.8-.8h-2.3v-2.55h12v2.55h-2.3c-.45,0-.85.25-.85.8v10.52Z"/>
          <path class="cls-2" d="M128.6,86.05c0,.55.4.8.85.8h2.27v2.55h-11.95v-2.55h2.27c.4,0,.83-.25.83-.8v-11.22h-1.97c-2.8,0-2.95,2.3-3.15,4.27h-2.67v-6.92h21.4v6.92h-2.62c-.2-2.05-.37-4.27-3.3-4.27h-1.95v11.22Z"/>
          <path class="cls-2" d="M152.72,86.05c0,.55.4.8.85.8h2.27v2.55h-11.95v-2.55h2.27c.4,0,.83-.25.83-.8v-11.22h-1.97c-2.8,0-2.95,2.3-3.15,4.27h-2.67v-6.92h21.39v6.92h-2.62c-.2-2.05-.37-4.27-3.3-4.27h-1.95v11.22Z"/>
          <path class="cls-2" d="M165.97,86.85c.42,0,.8-.25.8-.8v-10.4c0-.65-.43-.92-.92-.92h-2.2v-2.55h21.09v6.85h-2.75c-.08-1.78-.1-4.3-2.85-4.3h-6.62v4.45h2.35c.9,0,1.52-.47,1.52-1.35v-1.25h2.67v7.8h-2.67v-1.22c0-1.1-.5-1.38-1.5-1.38h-2.37v5.07h6.87c3.1,0,2.8-3.62,2.88-4.92h2.8v7.47h-21.42v-2.55h2.33Z"/>
          <path class="cls-2" d="M197.77,86.3c0,.3.4.55.85.55h2.25v2.55h-11.95v-2.55h2.32c.42,0,.8-.25.8-.55v-11.02c0-.3-.38-.55-.8-.55h-2.32v-2.55h14.35c3.55,0,7.02.77,7.02,4.3,0,3.12-2.75,3.97-5.95,4.17,2.42.42,3.9.9,4.2,3.2.12,1.05.08,3,.95,3,.58,0,.75-.4.75-1.17v-1.78h2.62v1.6c0,3.57-1.58,4.27-5.25,4.27-2.22,0-3.97-.85-4.3-3.02l-.47-3.22c-.1-.65-.43-1.6-2.1-1.6h-2.97v4.37ZM197.77,79.33h3.02c2.02,0,3.47-.25,3.47-2.42,0-1.45-1.1-2.17-2.87-2.17h-3.62v4.6Z"/>
          <path class="cls-2" d="M232.87,78.33h-2.72c-.77-2.7-3.22-4.1-6.17-4.1-1.62,0-3.67.47-3.67,1.97,0,.7.53,1.12,1.38,1.3l6.92,1.45c3.12.65,5.35,2.1,5.35,5.1,0,3.87-4,5.87-8.2,5.87-2.45,0-4.65-.37-6.62-1.5l-.77,1.3h-2.6v-6.7h2.77c.6,2.9,3.4,4.27,6.75,4.27,1.62,0,4.1-.45,4.1-2.07,0-.85-.83-1.22-1.83-1.42l-7.55-1.57c-2.82-.6-4.47-2.4-4.47-4.87,0-3.85,3.95-5.75,8.05-5.75,2.35,0,4.45.4,5.82,1.42l.88-1.17h2.6v6.47Z"/>
        </g>
      </g>
    </g>
  </g>
</svg>