<?xml version="1.0" encoding="UTF-8"?>
<svg id="Layer_2" data-name="Layer 2" xmlns="http://www.w3.org/2000/svg" viewBox="0 0 679.28 464.36">
  <defs>
    <style>
      .cls-1 {
        fill: #000;
        stroke-width: 0px;
      }
    </style>
  </defs>
  <g id="Layer_1-2" data-name="Layer 1">
    <g>
      <path class="cls-1" d="M321.09,464.36c-3.95,0-6.33-.62-10.29-1.64-4.41-1.14-11.07-2.86-24.92-5.1-26.77-4.32-47.6-39.77-53.26-62.38-2.47-9.88-8.07-16.73-15.81-26.21-7.47-9.15-16.77-20.53-27.1-39.13-23.78-42.81-51.79-33.25-57.16-30.9-5.93,2.59-11.04,11.46-15.56,19.28-5.3,9.19-9.89,17.14-16.41,16.53-10.25-.93-54.23-20.22-56.08-43.41-1.59-19.87-14.05-38.48-34.18-51.06l-.63-.4c-8.03-5.11-11.48-14.32-8.79-23.47,2.69-9.16,10.57-15.07,20.09-15.07h.09l68.36.28h.06c4.03,0,7.82-1.56,10.68-4.41,2.87-2.86,4.45-6.67,4.45-10.72V21.13c0-11.65,9.48-21.13,21.13-21.13h72.91c11.65,0,21.13,9.48,21.13,21.13v58.38c0,5.76,3.19,10.94,8.33,13.52,44.93,22.52,76.5,26.32,91.32,26.58,33.39.58,57.83-2.51,69.42-4.41,5.68-.93,11.61.55,16.25,4.07,5.2,3.95,13.28,9.18,22.2,11.69,9.04,2.55,15.36,10.9,15.36,20.32v47.3c0,3.15.92,6.15,2.66,8.68,5.28,7.67,16.9,28.23,10.81,53.27-2.71,11.13-4.53,21-5.42,29.33-.95,8.86-7.43,16.2-16.13,18.27-9.48,2.25-23.01,6.96-33.55,16.59-10.83,9.89-22.5,17.25-33.77,24.36-9.16,5.78-18.63,11.75-27.33,18.94-32.25,26.64-28.74,47.91-23.77,58.22,10.53,21.87,13.73,30.49,10.73,35.26-.81,1.3-2.48,2.84-5.81,2.84v.02ZM145.73,290.43c13.33,0,32.49,6.44,49.23,36.57,10.07,18.13,19.18,29.29,26.51,38.25,7.92,9.7,14.18,17.37,16.98,28.55,2.19,8.75,7.8,22.56,16.98,35.06,6.76,9.2,17.7,20.64,31.41,22.85,14.12,2.28,20.94,4.04,25.46,5.21,3.85,1,5.61,1.45,8.79,1.45.45,0,.67-.06.76-.09,1.59-3.08-7.28-21.51-11.09-29.41-5.47-11.36-5.19-23.49.85-36.06,4.76-9.91,13.23-20.07,24.51-29.39,8.99-7.43,18.63-13.51,27.95-19.38,11.06-6.97,22.49-14.19,32.93-23.72,11.5-10.5,26.04-15.58,36.21-17.99,6.23-1.48,10.87-6.73,11.55-13.06.92-8.6,2.79-18.73,5.56-30.12,5.52-22.69-5.1-41.44-9.92-48.45-2.43-3.54-3.72-7.72-3.72-12.08v-47.3c0-6.74-4.52-12.72-10.99-14.55-9.82-2.77-18.58-8.42-24.2-12.68-3.34-2.53-7.58-3.6-11.66-2.93-11.79,1.93-36.61,5.08-70.49,4.48-35.71-.63-74.16-17.32-93.9-27.22-7.18-3.6-11.64-10.84-11.64-18.88V21.13c0-8.34-6.79-15.13-15.13-15.13h-72.91c-8.34,0-15.13,6.79-15.13,15.13v165.44c0,5.66-2.21,10.98-6.22,14.97-3.99,3.97-9.28,6.16-14.91,6.16h-.09l-68.36-.28c-8.29-.07-12.94,5.77-14.4,10.76-1.45,4.95-.68,12.3,6.26,16.72l.59.37c21.76,13.6,35.24,33.89,36.98,55.67,1.48,18.48,41.25,37.06,50.65,37.91,2.75.22,7.31-7.73,10.67-13.56,4.97-8.62,10.61-18.4,18.35-21.78,2.26-.99,7.96-3.09,15.58-3.09h0Z"/>
      <path class="cls-1" d="M677.47,26.03c-1.31-1.44-3.18-2.26-5.13-2.26h-81.42c-2.11,0-4.12.95-5.38,2.55-.42.53-1.46.88-3.26,1.45-1.25.4-2.8.89-4.58,1.65-5.99,2.57-6.38,9.89-6.68,15.79-.07,1.26-.13,2.44-.24,3.54-.16,1.62-2.01,2.84-4.15,4.26-3,1.98-7.11,4.69-7.65,10.09-.09.91-.17,1.76-.24,2.56-.52,5.87-.73,8.3-5.11,12.38-6.78,6.33-6.4,9.71-4.29,18.56,1.85,7.75,1.87,8.44.72,18.44-1.13,9.81.19,13.9,2.84,22.05l.77,2.38c1.58,4.93,1.39,7.06,1.23,8.94-.15,1.74-.31,3.55.77,6.35.36.94.77,1.9,1.17,2.84,1.6,3.74,3.1,7.27,1.58,9.18-1.98,2.48-2.21,5.7-2.4,8.54-.14,2-.29,4.28-1.13,4.78-4.34,2.6-9.64,8.96-10.6,14.28-.84,4.61-3,9.16-6.44,13.53-4.35,5.54-3.36,11.49-2.96,13.18.03.11.04.21.04.33v13.1c0,3.83,3.12,6.95,6.95,6.95h62.98c.42,0,.83.19,1.1.51.27.33.39.75.32,1.17l-1.82,10.59c-.08.47-.12.93-.11,1.37.16,5.32,2.89,8.01,5.09,10.18,2.11,2.08,3.93,3.87,4.25,8.15.4,5.4.68,8.05,2.71,9.39.65.43,1.37.64,2.18.64,1.05,0,2.1-.36,3.21-.73.9-.31,2.02-.69,3.39-.99,3.45-.77,5.68-2.4,7.84-3.98,2.68-1.96,4.8-3.52,9.3-3.32,5.95.25,9.05-.56,11.55-1.22,1.61-.42,2.77-.72,4.46-.72,1.12,0,2.29.11,3.51.33,2.11.38,4.24-.22,5.84-1.65,1.61-1.43,2.45-3.48,2.31-5.63-.71-11.13-2.4-39.86-2.7-66.05-.34-30.39,9.92-145.42,11.99-168.17.18-1.94-.48-3.88-1.79-5.31ZM662.79,267.42c-1.53-.28-3.04-.42-4.49-.42-2.4,0-4.08.44-5.87.9-2.26.59-4.82,1.25-9.93,1.04-6.43-.26-9.96,2.32-12.79,4.39-1.85,1.36-3.45,2.53-5.77,3.04-1.67.37-3,.82-3.97,1.15-.12.04-.24.08-.37.13-.22-1.4-.38-3.63-.46-4.61-.47-6.35-3.59-9.42-5.88-11.67-2.02-1.99-3.36-3.31-3.45-6.41,0-.08,0-.17.02-.27l1.83-10.6c.35-2.02-.21-4.09-1.53-5.66-1.33-1.57-3.26-2.47-5.32-2.47h-62.98c-.79,0-1.44-.65-1.44-1.44v-13.1c0-.55-.07-1.1-.19-1.63-.26-1.08-.89-4.88,1.93-8.48,4-5.08,6.53-10.45,7.53-15.95.59-3.25,4.56-8.47,8.02-10.54,3.3-1.98,3.58-5.94,3.79-9.13.15-2.13.3-4.34,1.21-5.48,3.58-4.48,1.14-10.19-.81-14.79-.39-.92-.76-1.79-1.09-2.64-.62-1.62-.55-2.43-.42-3.9.2-2.28.45-5.11-1.47-11.1-.27-.84-.53-1.64-.77-2.4-2.54-7.85-3.6-11.1-2.6-19.72,1.18-10.23,1.24-11.64-.83-20.35-1.81-7.62-2.09-8.79,2.69-13.25,5.92-5.53,6.29-9.66,6.84-15.97.07-.77.14-1.58.23-2.45.28-2.79,2.56-4.29,5.2-6.04,2.76-1.82,6.19-4.08,6.6-8.32.12-1.24.19-2.6.25-3.8.25-4.81.51-9.79,3.35-11,1.54-.66,2.89-1.09,4.08-1.47,2.37-.75,4.42-1.4,5.91-3.29.22-.28.62-.45,1.05-.45h81.42c.42,0,.78.16,1.06.47s.41.68.37,1.1c-2.07,22.8-12.36,138.06-12.01,168.73.3,26.28,2,55.15,2.71,66.34.03.44-.15.87-.48,1.17-.33.3-.76.42-1.2.34Z"/>
      <path class="cls-1" d="M567.9,336.9c-.88,0-1.7-.39-2.28-1.07-1.2-1.11-8.88-4.92-10.17-5.33-.24-.06-1.31-.28-2.65-.56-1.65-.35-3.71-.78-5.35-1.14-3.24-.72-5.03-1.12-4.79-3.44.11-1.08.98-2.18,2.44-2.26.53-.12,2.51-.87,6.88-2.98-3.14-10.43-2.61-11.36-2.05-12.35.26-.46.63-.82,1.07-1.05.17-.22.58-.78,1.27-2.08l-7.02-1.91c-.14-.04-.28-.08-.42-.14l-.76-.28,2.11,4.41c.66,1.38.64,2.95-.04,4.31s-1.94,2.31-3.44,2.6l-2.92.57c-1.37.27-2.8-.07-3.91-.93-1.11-.85-1.8-2.15-1.9-3.55l-.1-1.49-6.53-.35c-2.07-.11-3.85-1.52-4.43-3.5l-.11-.37-5.63,2.5c1.04,6.43.74,7.9-.38,8.93-.64.59-1.51.83-2.36.65-.85-.1-5.53-.18-8.96-.23-6.89-.11-9.16-.17-9.95-.32-1.27-.25-14.28-5.1-24.97-9.12h-.22s-17.23-1.06-17.23-1.06c-1.38-.08-2.43-1.27-2.34-2.65.08-1.38,1.26-2.43,2.65-2.34l17.12,1.06c.63-.03,1.21.1,1.78.31,10.66,4.01,22.66,8.46,24.19,8.9.93.1,5.61.18,9.05.23,3.48.05,5.71.1,7.18.14-.08-.84-.23-2.05-.51-3.77-.36-2.19.81-4.36,2.84-5.26l5.82-2.59c1.29-.57,2.76-.56,4.04.03,1.28.59,2.24,1.71,2.64,3.06l.12.41,6.55.35c2.47.13,4.45,2.09,4.62,4.56l.1,1.46,2.66-.52-2.17-4.53c-.87-1.81-.55-3.93.81-5.41,1.35-1.48,3.44-1.98,5.32-1.27l1.02.38,7.13,1.98c1.44.4,2.6,1.41,3.18,2.78.59,1.37.53,2.9-.17,4.22-.83,1.56-1.5,2.62-2.16,3.33.18,1.2.78,3.82,2.21,8.56.7,2.31-.38,4.76-2.55,5.81-.28.14-.55.26-.81.39.14.03.27.06.39.08,1.44.3,2.57.54,2.9.62,1.01.25,7.63,3.29,11.01,5.56.46-.65.97-1.45,1.28-1.94.98-1.55,1.44-2.25,2.13-2.71.32-.22,2.35-1.78,7.07-5.52,1.94-1.54,4.73-1.38,6.49.38l2.61,2.61c.46.46.81.99,1.06,1.59l2.33,5.62,2.79-.72-1.58-4.6c-.72-2.1.07-4.43,1.91-5.66l2.64-1.76,5.11-3.62c1.82-1.29,4.27-1.18,5.98.25l3.65,3.07,10.62,5.18h5.32s-2.57-5-2.57-5l-10.22-1.78c-1.7-.3-3.13-1.48-3.74-3.1l-1.33-3.55c-.82-2.18.02-4.65,2-5.87,3.71-2.31,4.79-3.09,5.06-3.31.44-.66,1.8-3.26,3.89-7.67l-.39-1.15c-1.14.75-2.62.44-3.39-.69-.78-1.14-.43-2.7.71-3.48,1.29-.88,2.88-1.09,4.35-.58,1.48.51,2.59,1.66,3.06,3.15l.42,1.33c.37,1.18.29,2.44-.24,3.56-3.77,7.98-4.46,8.67-4.82,9.03-.27.27-.84.85-5.94,4.01l1.28,3.41,10.21,1.78c1.5.26,2.81,1.23,3.51,2.58l2.67,5.19c.79,1.53.72,3.32-.17,4.78-.9,1.47-2.46,2.34-4.17,2.34h-5.55c-.74,0-1.48-.17-2.14-.5l-10.64-5.19c-.36-.18-.7-.4-1-.65l-3.58-3.02-5.1,3.61-2.63,1.75,1.59,4.64c.44,1.29.33,2.71-.32,3.9-.64,1.2-1.76,2.08-3.08,2.42l-3,.78c-2.34.61-4.82-.62-5.74-2.86l-2.36-5.71-2.52-2.5c-5.14,4.06-6.61,5.18-7.09,5.53-.21.28-.61.91-.91,1.39-1.64,2.59-3.05,4.83-5.17,4.95-.06,0-.11,0-.17,0ZM565.57,335.77s.01.02.02.03c0,0-.02-.02-.02-.03ZM545.26,323.08s-.05,0-.08,0c.03,0,.06,0,.09,0h-.01ZM514.35,316.05s.05.01.08.02c-.03,0-.05-.01-.08-.02ZM552.84,311.32s0,0,0,0c0,0,0,0,0,0ZM552.85,311.31s0,0,0,0c0,0,0,0,0,0Z"/>
      <path class="cls-1" d="M547.33,158.13h-96.7c-1.38,0-2.5-1.12-2.5-2.5s1.12-2.5,2.5-2.5h96.7c1.38,0,2.5,1.12,2.5,2.5s-1.12,2.5-2.5,2.5Z"/>
    </g>
  </g>
</svg>