<?xml version="1.0" encoding="UTF-8"?>
<svg id="Layer_2" data-name="Layer 2" xmlns="http://www.w3.org/2000/svg" viewBox="0 0 203.31 366.89">
  <defs>
    <style>
      .cls-1 {
        fill: #000;
        stroke-width: 0px;
      }
    </style>
  </defs>
  <g id="Layer_1-2" data-name="Layer 1">
    <path class="cls-1" d="M118.28,366.89c-.81,0-1.58-.19-2.32-.68-2.22-1.47-2.65-4.54-3.22-12.28-.49-6.63-3.39-9.49-6.47-12.52-3.1-3.05-6.62-6.52-6.82-13.52-.02-.53.03-1.09.13-1.66l2.6-15.08c.17-1.01-.1-2.04-.77-2.83-.66-.78-1.63-1.23-2.65-1.23H9.09c-4.67,0-8.47-3.8-8.47-8.47v-18.64c0-.28-.03-.54-.1-.8-.54-2.25-1.86-10.15,3.94-17.55,5.03-6.41,8.21-13.1,9.45-19.89,1.29-7.08,8.64-15.89,14.43-19.37,1.83-1.1,2.06-4.42,2.3-7.93.26-3.84.56-8.19,3.11-11.37,2.7-3.38.39-8.79-2.05-14.52-.56-1.31-1.14-2.67-1.64-3.99-1.41-3.69-1.21-5.98-1-8.41.25-2.81.52-5.99-1.81-13.29-.38-1.19-.75-2.32-1.09-3.39-3.7-11.41-5.55-17.14-3.98-30.79,1.65-14.33,1.61-15.58-1.05-26.75-2.92-12.27-3.41-16.55,5.7-25.05,6.63-6.19,6.97-10.06,7.72-18.55.1-1.13.21-2.34.33-3.62.7-7.01,6-10.51,10.26-13.32,3.36-2.21,6.25-4.12,6.55-7.11.16-1.6.25-3.31.34-5.12.44-8.4.94-17.93,8.66-21.23,2.47-1.06,4.65-1.75,6.4-2.31,2.9-.92,4.46-1.45,5.31-2.54,1.52-1.93,3.97-3.09,6.54-3.09h115.92c2.38,0,4.66,1.01,6.26,2.76,1.6,1.75,2.39,4.11,2.18,6.47-2.94,32.4-17.56,196.2-17.07,239.55.42,37.3,2.83,78.24,3.85,94.11.17,2.62-.86,5.12-2.82,6.87-1.95,1.74-4.55,2.47-7.12,2-1.81-.33-3.57-.49-5.24-.49-2.59,0-4.42.48-6.73,1.08-3.46.9-7.78,2.02-16.02,1.68-6.92-.29-10.26,2.17-14.14,5.01-2.95,2.16-6,4.4-10.61,5.42-2.02.45-3.66,1.01-4.98,1.46-1.48.5-2.84.97-4.11.97ZM78.92,5c-1.05,0-2.02.44-2.61,1.18-1.85,2.34-4.44,3.17-7.73,4.21-1.73.55-3.69,1.17-5.94,2.14-4.85,2.08-5.25,9.61-5.63,16.9-.09,1.79-.19,3.64-.36,5.35-.53,5.36-4.91,8.25-8.77,10.8-3.89,2.57-7.57,5-8.04,9.64-.13,1.26-.23,2.45-.33,3.56-.79,8.9-1.26,14.27-9.29,21.76-7.42,6.92-6.87,9.21-4.25,20.24,2.9,12.16,2.81,14.14,1.16,28.48-1.45,12.58.08,17.29,3.77,28.68.35,1.08.72,2.21,1.1,3.41,2.64,8.25,2.3,12.13,2.03,15.25-.19,2.15-.31,3.57.69,6.18.47,1.23,1.01,2.49,1.57,3.81,2.78,6.51,5.93,13.89,1.36,19.6-1.57,1.96-1.8,5.33-2.03,8.59-.3,4.42-.65,9.43-4.71,11.87-5.29,3.18-11.17,10.94-12.08,15.98-1.38,7.6-4.89,15.03-10.44,22.08-4.42,5.62-3.42,11.59-3.02,13.28.16.64.24,1.31.24,1.98v18.64c0,1.91,1.56,3.47,3.47,3.47h89.66c2.5,0,4.87,1.1,6.48,3.01,1.61,1.92,2.29,4.43,1.87,6.9l-2.6,15.08c-.04.25-.06.47-.06.66.15,5,2.43,7.25,5.33,10.1,3.26,3.21,7.31,7.2,7.94,15.71.17,2.27.5,6.76,1.01,8.27.52-.12,1.35-.4,2.05-.64,1.43-.49,3.22-1.09,5.5-1.6,3.59-.8,6.09-2.63,8.74-4.57,4.05-2.97,8.64-6.33,17.31-5.98,7.49.31,11.25-.66,14.55-1.53,2.44-.64,4.75-1.24,7.99-1.24,1.97,0,4.04.19,6.14.57,1.05.19,2.11-.11,2.9-.82.8-.71,1.22-1.74,1.15-2.81-1.02-15.91-3.43-56.96-3.86-94.37-.5-43.59,14.15-207.62,17.09-240.06.09-.98-.23-1.92-.89-2.65-.67-.73-1.58-1.13-2.56-1.13h-115.92Z"/>
  </g>
</svg>