<?xml version="1.0" encoding="UTF-8"?>
<svg id="motorGraphic" data-name="Motor Graphic" xmlns="http://www.w3.org/2000/svg" viewBox="0 0 122.67 158.97">
  <path id="motor" d="m97,44v-8.54s-12.48,0-12.48,0v8.54s-8.87,0-8.87,0v-8.54s-4.7,0-4.7,0v-12.72s35.22-.02,35.22-.02V0s-3.94,0-3.94,0v18.81s-83.15.04-83.15.04V.04s-3.94,0-3.94,0v22.74s33.52-.01,33.52-.01v12.72s-4.69,0-4.69,0v8.54s-7.16,0-7.16,0v-8.54s-12.48,0-12.48,0v8.54s-24.33.01-24.33.01l.05,114.93,122.61-.05-.05-114.93h-25.62Zm-44.4-9.27v-11.01s14.42,0,14.42,0v11.01s-14.42,0-14.42,0Zm35.86,4.68h4.61s0,4.6,0,4.6h-4.61s0-4.6,0-4.6Zm-40.56.02h23.82s0,4.59,0,4.59h-23.82s0-4.59,0-4.59Zm-19.64,0h4.61s0,4.6,0,4.6h-4.61s0-4.6,0-4.6Zm90.47,115.56l-114.75.05-.05-107.07h17.51s.04,85.12.04,85.12l79.44-.04-.04-85.12h17.81s.05,107.06.05,107.06Z"/>
</svg>