<svg xmlns="http://www.w3.org/2000/svg" width="62.334" height="54.688" viewBox="0 0 62.334 54.688"><g transform="translate(-165.627 -303.782)"><path d="M219.4,398.008a1.979,1.979,0,0,0-2.728.634,23.384,23.384,0,0,1-42.614-6.951l1.528-.126a2.387,2.387,0,0,0,1.766-3.738l-4.209-6.078a2.387,2.387,0,0,0-4.121.339l-3.159,6.684a2.387,2.387,0,0,0,2.354,3.4l1.85-.152a27.348,27.348,0,0,0,49.967,8.717A1.98,1.98,0,0,0,219.4,398.008Z" transform="translate(0 -55.172)" fill="#1a1818"/><path d="M245.507,325.237l-1.821.159a27.348,27.348,0,0,0-49.645-9.209,1.98,1.98,0,0,0,.629,2.775,2.041,2.041,0,0,0,2.734-.681,23.383,23.383,0,0,1,42.295,7.463l-1.557.136a2.387,2.387,0,0,0-1.747,3.747l4.24,6.056a2.387,2.387,0,0,0,4.119-.36l3.125-6.7A2.387,2.387,0,0,0,245.507,325.237Z" transform="translate(-20.144)" fill="#1a1818"/></g></svg>