<?xml version="1.0" encoding="UTF-8"?>
<svg xmlns="http://www.w3.org/2000/svg" viewBox="0 0 457.87 464.36">
  <path class="cls-1" d="M321.09,464.36c-3.95,0-6.33-.62-10.29-1.64-4.41-1.14-11.07-2.86-24.92-5.1-26.77-4.32-47.6-39.77-53.26-62.38-2.47-9.88-8.07-16.73-15.81-26.21-7.47-9.15-16.77-20.53-27.1-39.13-23.78-42.81-51.79-33.25-57.16-30.9-5.93,2.59-11.04,11.46-15.56,19.28-5.3,9.19-9.89,17.14-16.41,16.53-10.25-.93-54.23-20.22-56.08-43.41-1.59-19.87-14.05-38.48-34.18-51.06l-.63-.4c-8.03-5.11-11.48-14.32-8.79-23.47,2.69-9.16,10.57-15.07,20.09-15.07h.09l68.36.28h.06c4.03,0,7.82-1.56,10.68-4.41,2.87-2.86,4.45-6.67,4.45-10.72V21.13c0-11.65,9.48-21.13,21.13-21.13h72.91c11.65,0,21.13,9.48,21.13,21.13v58.38c0,5.76,3.19,10.94,8.33,13.52,44.93,22.52,76.5,26.32,91.32,26.58,33.39.58,57.83-2.51,69.42-4.41,5.68-.93,11.61.55,16.25,4.07,5.2,3.95,13.28,9.18,22.2,11.69,9.04,2.55,15.36,10.9,15.36,20.32v47.3c0,3.15.92,6.15,2.66,8.68,5.28,7.67,16.9,28.23,10.81,53.27-2.71,11.13-4.53,21-5.42,29.33-.95,8.86-7.43,16.2-16.13,18.27-9.48,2.25-23.01,6.96-33.55,16.59-10.83,9.89-22.5,17.25-33.77,24.36-9.16,5.78-18.63,11.75-27.33,18.94-32.25,26.64-28.74,47.91-23.77,58.22,10.53,21.87,13.73,30.49,10.73,35.26-.81,1.3-2.48,2.84-5.81,2.84ZM145.73,290.43c13.33,0,32.49,6.44,49.23,36.57,10.07,18.13,19.18,29.29,26.51,38.25,7.92,9.7,14.18,17.37,16.98,28.55,2.19,8.75,7.8,22.56,16.98,35.06,6.76,9.2,17.7,20.64,31.41,22.85,14.12,2.28,20.94,4.04,25.46,5.21,3.85,1,5.61,1.45,8.79,1.45.45,0,.67-.06.76-.09,1.59-3.08-7.28-21.51-11.09-29.41-5.47-11.36-5.19-23.49.85-36.06,4.76-9.91,13.23-20.07,24.51-29.39,8.99-7.43,18.63-13.51,27.95-19.38,11.06-6.97,22.49-14.19,32.93-23.72,11.5-10.5,26.04-15.58,36.21-17.99,6.23-1.48,10.87-6.73,11.55-13.06.92-8.6,2.79-18.73,5.56-30.12,5.52-22.69-5.1-41.44-9.92-48.45-2.43-3.54-3.72-7.72-3.72-12.08v-47.3c0-6.74-4.52-12.72-10.99-14.55-9.82-2.77-18.58-8.42-24.2-12.68-3.34-2.53-7.58-3.6-11.66-2.93-11.79,1.93-36.61,5.08-70.49,4.48-35.71-.63-74.16-17.32-93.9-27.22-7.18-3.6-11.64-10.84-11.64-18.88V21.13c0-8.34-6.79-15.13-15.13-15.13h-72.91c-8.34,0-15.13,6.79-15.13,15.13v165.44c0,5.66-2.21,10.98-6.22,14.97-3.99,3.97-9.28,6.16-14.91,6.16h-.09l-68.36-.28c-8.29-.07-12.94,5.77-14.4,10.76-1.45,4.95-.68,12.3,6.26,16.72l.59.37c21.76,13.6,35.24,33.89,36.98,55.67,1.48,18.48,41.25,37.06,50.65,37.91,2.75.22,7.31-7.73,10.67-13.56,4.97-8.62,10.61-18.4,18.35-21.78,2.26-.99,7.96-3.09,15.58-3.09Z"/>
</svg>