<svg xmlns="http://www.w3.org/2000/svg">
  <g>
    <path d="M25.84,230.49h82.06c14.24,0,25.84-11.01,25.84-24.52V24.52c0-13.51-11.6-24.52-25.84-24.52H25.84C11.6,0,0,11.01,0,24.52v181.45c0,13.51,11.6,24.52,25.84,24.52M66.94,222.26c-6.46,0-11.6-5.14-11.6-11.45s5.14-11.6,11.6-11.6,11.45,5.14,11.45,11.6-5.14,11.45-11.45,11.45M49.33,14.97h35.23c1.47,0,2.64,1.03,2.64,2.2s-1.17,2.2-2.64,2.2h-35.23c-1.47,0-2.64-1.03-2.64-2.2s1.17-2.2,2.64-2.2M10.13,42.57c0-2.06,1.76-3.67,3.82-3.67h105.85c2.2,0,3.82,1.61,3.82,3.67v144.75c0,2.06-1.76,3.67-3.82,3.67H13.95c-2.2,0-3.82-1.61-3.82-3.67V42.57"/>
    <path d="M23.75,75.44c.64,0,1.28-.24,1.77-.73l18.45-18.45c.98-.98.98-2.56,0-3.54-.98-.98-2.56-.98-3.54,0l-18.45,18.45c-.98.98-.98,2.56,0,3.54.49.49,1.13.73,1.77.73Z"/>
    <path d="M69.24,49.85c-.98-.98-2.56-.98-3.54,0l-47.21,47.21c-.98.98-.98,2.56,0,3.54.49.49,1.13.73,1.77.73s1.28-.24,1.77-.73l47.21-47.21c.98-.98.98-2.56,0-3.54Z"/>
  </g>
</svg>