<?xml version="1.0" encoding="UTF-8"?>
<svg id="phoneIcon" xmlns="http://www.w3.org/2000/svg" viewBox="0 0 9.11 15.7">
  <path class="cls-1" d="M1.76,15.7h5.59c.97,0,1.76-.75,1.76-1.67V1.67c0-.92-.79-1.67-1.76-1.67H1.76C.79,0,0,.75,0,1.67v12.36c0,.92.79,1.67,1.76,1.67M4.56,15.14c-.44,0-.79-.35-.79-.78s.35-.79.79-.79.78.35.78.79-.35.78-.78.78M3.36,1.02h2.4c.1,0,.18.07.18.15s-.08.15-.18.15h-2.4c-.1,0-.18-.07-.18-.15,0-.08.08-.15.18-.15M.69,2.9c0-.14.12-.25.26-.25h7.21c.15,0,.26.11.26.25v9.86c0,.14-.12.25-.26.25H.95c-.15,0-.26-.11-.26-.25V2.9"/>
</svg>