<?xml version="1.0" encoding="UTF-8"?>
<svg id="pinIcon" xmlns="http://www.w3.org/2000/svg" viewBox="0 0 11.34 14.18">
  <path class="cls-1" d="M5.17,13.97l.5-.5-.5.5ZM5.67,13.47l.5.5c-.28.28-.73.28-1,0,0,0,0,0,0,0h0s-.01-.02-.01-.02l-.04-.04c-.25-.26-.5-.52-.74-.78-.61-.66-1.19-1.35-1.74-2.06-.63-.82-1.28-1.74-1.77-2.65-.48-.89-.86-1.86-.86-2.74C0,2.45,2.55,0,5.67,0s5.67,2.45,5.67,5.67c0,.88-.38,1.85-.86,2.74-.49.91-1.14,1.83-1.77,2.65-.77.99-1.6,1.94-2.48,2.85l-.04.04h-.01s0,.02,0,.02l-.5-.5ZM5.67,7.8c1.17,0,2.13-.95,2.13-2.13s-.95-2.13-2.13-2.13-2.13.95-2.13,2.13.95,2.13,2.13,2.13Z"/>
</svg>