<svg id="pinIcon" xmlns="http://www.w3.org/2000/svg">
  <g>
    <path d="M114.71,344.65c-16.01-17.32-31.24-35.44-45.67-54.07-16.54-21.52-33.6-45.67-46.46-69.56C9.98,197.66,0,172.2,0,149.1-.26,64.31,66.67,0,148.57,0s148.83,64.31,148.83,148.83c0,23.1-9.97,48.56-22.57,71.92-12.86,23.89-29.92,48.04-46.46,69.56-20.21,25.99-79.67,89.62-79.67,89.62,0,0-27.69-28.46-33.99-35.28ZM148.57,204.75c30.71,0,55.91-24.94,55.91-55.91s-24.94-55.91-55.91-55.91-55.91,24.94-55.91,55.91,24.94,55.91,55.91,55.91Z"/>
  </g>
</svg>