<?xml version="1.0" encoding="UTF-8"?>
<svg id="Layer_2" data-name="Layer 2" xmlns="http://www.w3.org/2000/svg" viewBox="0 0 276.34 430.74">
  <defs>
    <style>
      .cls-1 {
        stroke-dasharray: 0 0 0 0 0 0 9.94 9.93;
      }

      .cls-1, .cls-2 {
        fill: none;
        stroke: #fff;
        stroke-miterlimit: 10;
      }

      .cls-3 {
        fill: #fff;
      }

      .cls-4 {
        fill: #4e6283;
      }

      .cls-2 {
        stroke-dasharray: 0 0 0 0 0 0 10 10;
      }
    </style>
  </defs>
  <g id="Layer_2-2" data-name="Layer 2">
    <g id="graphic">
      <g id="feeder">
        <g id="fills">
          <g id="split">
            <polygon id="full" class="cls-4" points="4.49 4.59 217.97 4.59 218.77 319.81 119.61 376.74 101.37 376.74 3.8 318.43 4.49 4.59"/>
            <g>
              <polyline class="cls-1" points="146.51 23.22 146.51 203.95 178.86 236.29"/>
              <polygon class="cls-3" points="173.62 236.84 173.66 235.84 178.59 236.02 178.41 231.09 179.41 231.06 179.62 237.06 173.62 236.84"/>
            </g>
            <g>
              <line class="cls-2" x1="66.59" y1="270.72" x2="66.59" y2="23.22"/>
              <polygon class="cls-3" points="70.68 267.41 69.95 266.73 66.59 270.34 63.23 266.73 62.5 267.41 66.59 271.81 70.68 267.41"/>
            </g>
            <g>
              <polyline class="cls-1" points="31 23.22 31 304.17 87.67 338.55"/>
              <polygon class="cls-3" points="82.71 340.33 82.51 339.35 87.34 338.35 85.99 333.61 86.96 333.33 88.59 339.11 82.71 340.33"/>
            </g>
          </g>
          <g id="gravity">
            <polygon id="gravity-2" class="cls-4" points="4.46 5.2 218.41 5.2 218.41 320.57 4.69 110.26 4.46 5.2"/>
            <g>
              <polyline class="cls-1" points="57.62 17.94 57.62 117.91 74.47 134.76"/>
              <polygon class="cls-3" points="69.23 135.31 69.27 134.31 74.2 134.49 74.02 129.56 75.02 129.52 75.23 135.52 69.23 135.31"/>
            </g>
            <g>
              <polyline class="cls-1" points="146.51 17.94 146.51 198.67 178.86 231.01"/>
              <polygon class="cls-3" points="173.62 231.56 173.66 230.56 178.59 230.74 178.41 225.81 179.41 225.78 179.62 231.78 173.62 231.56"/>
            </g>
          </g>
          <g id="timer">
            <polygon id="full-2" class="cls-4" points="4.49 4.59 217.97 4.59 218.77 319.81 119.61 376.74 101.37 376.74 3.8 318.43 4.49 4.59"/>
            <g>
              <line class="cls-2" x1="149.53" y1="269.03" x2="149.53" y2="21.53"/>
              <polygon class="cls-3" points="153.62 265.72 152.89 265.04 149.53 268.65 146.18 265.04 145.44 265.72 149.53 270.12 153.62 265.72"/>
            </g>
            <g>
              <line class="cls-2" x1="66.59" y1="269.03" x2="66.59" y2="21.53"/>
              <polygon class="cls-3" points="70.68 265.72 69.95 265.04 66.59 268.65 63.23 265.04 62.5 265.72 66.59 270.12 70.68 265.72"/>
            </g>
            <g>
              <polyline class="cls-1" points="186.61 21.53 186.61 302.48 129.93 336.86"/>
              <polygon class="cls-3" points="130.65 331.64 131.61 331.91 130.26 336.66 135.09 337.65 134.89 338.63 129.01 337.42 130.65 331.64"/>
            </g>
            <g>
              <polyline class="cls-1" points="31 21.53 31 302.48 87.67 336.86"/>
              <polygon class="cls-3" points="82.71 338.63 82.51 337.65 87.34 336.66 85.99 331.91 86.96 331.64 88.59 337.42 82.71 338.63"/>
            </g>
          </g>
        </g>
        <g id="outline">
          <path class="cls-3" d="m219.47,377.62H3.53V3.98h215.94v373.64h0Zm-214.71-1.23h213.48V5.2H4.76v371.18h0Z"/>
          <rect class="cls-3" x="110.89" y="4.59" width="1.23" height="186.21"/>
          <path class="cls-3" d="m276.34,319.95h-58.09v-66.53l58.09,31.91v34.62Zm-56.86-1.23h55.63v-32.66l-55.63-30.56v63.22h0Z"/>
          <polygon class="cls-3" points="223.88 8.56 222.65 8.56 222.65 1.23 1.23 1.23 1.23 8.56 0 8.56 0 0 223.88 0 223.88 8.56"/>
          <path class="cls-3" d="m124.8,387.23h-28.46v-10.84h28.46v10.84Zm-27.23-1.23h26v-8.38h-26v8.38Z"/>
          <polygon class="cls-3" points="118.17 383.36 103.37 383.36 100.53 377.26 101.65 376.74 104.15 382.13 117.38 382.13 119.89 376.74 121 377.26 118.17 383.36"/>
          <rect class="cls-3" x="34.88" y="377" width="3.74" height="18.42"/>
          <rect class="cls-3" x="183.31" y="377" width="3.74" height="18.42"/>
          <rect class="cls-3" x="19.93" y="394.95" width="183.14" height="1.33"/>
          <path class="cls-3" d="m24.72,377v26.7c0,2.4,1.33,1.87,4.27,1.87s31.1.08,38.9.27c10.98.27,16.13,11.21,16.13,16.82,0,2.41.95,2.66,2.8,2.66h5.34v-5.07h-3.74s-2.85-17.81-20.47-18.81c-8.47-.48-15.2-.28-23.74-.28h-13.88c-.8,0-1.33-1.47-1.33-3.34v-20.82h-4.28Z"/>
          <g>
            <path class="cls-3" d="m113.78,391.9h-6.97v-5.9h6.97v5.9Zm-5.74-1.23h4.51v-3.44h-4.51v3.44Z"/>
            <path class="cls-3" d="m115.25,396.04h-9.91v-3.9h9.91v3.9Zm-8.68-1.23h7.45v-1.44h-7.45v1.44Z"/>
            <path class="cls-3" d="m103.11,396.04h-3.9v-3.9h3.9v3.9Zm-2.67-1.23h1.44v-1.44h-1.44v1.44Z"/>
            <path class="cls-3" d="m121.93,396.04h-3.9v-3.9h3.9v3.9Zm-2.67-1.23h1.44v-1.44h-1.44v1.44Z"/>
          </g>
          <path class="cls-3" d="m129.94,430.74h-38.34v-35.94h38.34v35.94Zm-37.11-1.23h35.88v-33.48h-35.88v33.48Z"/>
          <rect class="cls-3" x="98.3" y="395.42" width="24.84" height="27.23"/>
          <polygon class="cls-3" points="120.75 377.53 120.13 376.47 218.54 319.42 219.16 320.48 120.75 377.53"/>
          <rect class="cls-3" x="51.82" y="291.3" width="1.23" height="113.33" transform="translate(-273.28 214.78) rotate(-59.19)"/>
          <path class="cls-3" d="m101.27,216.69c-1.14,0-2.07-.93-2.07-2.07s.93-2.07,2.07-2.07,2.07.93,2.07,2.07-.93,2.07-2.07,2.07Zm0-2.91c-.46,0-.84.38-.84.84s.38.84.84.84.84-.38.84-.84-.38-.84-.84-.84Z"/>
          <polygon class="cls-3" points="99.66 228.59 98.8 227.72 110.46 217.11 121.13 227.88 120.27 228.76 110.46 218.84 99.66 228.59"/>
        </g>
      </g>
    </g>
  </g>
</svg>