<?xml version="1.0" encoding="UTF-8"?>
<svg id="Layer_2" data-name="Layer 2" xmlns="http://www.w3.org/2000/svg" viewBox="0 0 341.67 430.74">
  <defs>
    <style>
      .cls-1 {
        fill: none;
        stroke: #fff;
        stroke-dasharray: 0 0 0 0 0 0 0 0 0 0 0 0;
        stroke-miterlimit: 10;
      }

      .cls-2 {
        fill: #fff;
      }

      .cls-2, .cls-3 {
        stroke-width: 0px;
      }

      .cls-3 {
        fill: #4e6283;
      }
    </style>
  </defs>
  <g id="blueprint">
    <g>
      <polygon id="bg" class="cls-3" points="57.42 5.14 270.9 5.14 271.7 320.36 172.54 377.29 154.3 377.29 56.73 318.98 57.42 5.14"/>
      <g id="fills">
        <g id="left-full">
          <polyline class="cls-1" points="129.02 21.53 129.02 199.17 96.72 231.47"/>
          <polygon class="cls-2" points="96.1 231.92 96.31 225.92 97.31 225.95 97.13 230.88 102.06 230.7 102.1 231.7 96.1 231.92"/>
          <polyline class="cls-1" points="239.54 21.53 239.54 302.48 182.86 336.86"/>
          <polygon class="cls-2" points="183.58 331.64 184.54 331.91 183.19 336.66 188.02 337.65 187.82 338.63 181.94 337.42 183.58 331.64"/>
          <line class="cls-1" x1="202.46" y1="269.03" x2="202.46" y2="21.53"/>
          <polygon class="cls-2" points="206.55 265.72 205.82 265.04 202.46 268.65 199.11 265.04 198.37 265.72 202.46 270.12 206.55 265.72"/>
          <polygon class="cls-2" points="281.82 392.11 281.15 391.36 284.85 388.09 281.31 384.65 282.01 383.93 286.31 388.12 281.82 392.11"/>
          <polygon class="cls-2" points="50.15 383.93 50.82 384.68 47.12 387.95 50.66 391.39 49.96 392.11 45.66 387.92 50.15 383.93"/>
          <line class="cls-1" x1="284.97" y1="388.02" x2="191.26" y2="388.02"/>
          <line class="cls-1" x1="47" y1="388.02" x2="134.4" y2="388.02"/>
        </g>
        <g id="left">
          <path class="cls-2" d="M272.4,394.95h-142.44v-18.08h142.44v18.08ZM130.96,394.05h140.44v-16.28h-140.44v16.28h0Z"/>
          <path class="cls-2" d="M271.4,394.85v-13.73h.51l34.43,1.15v3.93l-33.94,8.72-1-.07h0ZM272.4,382.14v11.81l32.93-8.61v-2.09l-32.93-1.11h0Z"/>
          <polyline class="cls-1" points="129.02 21.53 129.02 199.17 96.72 231.47"/>
          <polygon class="cls-2" points="96.1 231.92 96.31 225.92 97.31 225.95 97.13 230.88 102.06 230.7 102.1 231.7 96.1 231.92"/>
          <polyline class="cls-1" points="239.54 21.53 239.54 302.48 182.86 336.86"/>
          <polygon class="cls-2" points="183.58 331.64 184.54 331.91 183.19 336.66 188.02 337.65 187.82 338.63 181.94 337.42 183.58 331.64"/>
          <line class="cls-1" x1="202.46" y1="269.03" x2="202.46" y2="21.53"/>
          <polygon class="cls-2" points="206.55 265.72 205.82 265.04 202.46 268.65 199.11 265.04 198.37 265.72 202.46 270.12 206.55 265.72"/>
          <polyline class="cls-1" points="191.26 388.02 284.97 388.02 340.35 372.22"/>
          <polygon class="cls-2" points="338.93 376.93 338.05 376.47 340.3 372.08 335.76 370.16 336.14 369.24 341.67 371.58 338.93 376.93"/>
          <polygon class="cls-2" points="314.41 373.3 313.44 373.1 314.44 368.26 309.55 367.63 309.68 366.63 315.63 367.41 314.41 373.3"/>
          <line class="cls-1" x1="314.44" y1="368.26" x2="284.97" y2="388.02"/>
        </g>
        <g id="timer-full">
          <line class="cls-1" x1="119.52" y1="269.03" x2="119.52" y2="21.53"/>
          <polygon class="cls-2" points="123.61 265.72 122.88 265.04 119.52 268.65 116.16 265.04 115.43 265.72 119.52 270.12 123.61 265.72"/>
          <polyline class="cls-1" points="239.54 21.53 239.54 302.48 182.86 336.86"/>
          <polygon class="cls-2" points="183.58 331.64 184.54 331.91 183.19 336.66 188.02 337.65 187.82 338.63 181.94 337.42 183.58 331.64"/>
          <polyline class="cls-1" points="83.93 21.53 83.93 302.48 140.6 336.86"/>
          <polygon class="cls-2" points="135.64 338.63 135.44 337.65 140.27 336.66 138.92 331.91 139.89 331.64 141.52 337.42 135.64 338.63"/>
          <line class="cls-1" x1="202.46" y1="269.03" x2="202.46" y2="21.53"/>
          <polygon class="cls-2" points="206.55 265.72 205.82 265.04 202.46 268.65 199.11 265.04 198.37 265.72 202.46 270.12 206.55 265.72"/>
          <polygon class="cls-2" points="281.82 392.11 281.15 391.36 284.85 388.09 281.31 384.65 282.01 383.93 286.31 388.12 281.82 392.11"/>
          <polygon class="cls-2" points="50.15 383.93 50.82 384.68 47.12 387.95 50.66 391.39 49.96 392.11 45.66 387.92 50.15 383.93"/>
          <line class="cls-1" x1="284.97" y1="388.02" x2="191.26" y2="388.02"/>
          <line class="cls-1" x1="47" y1="388.02" x2="134.4" y2="388.02"/>
        </g>
        <g id="timer">
          <path class="cls-2" d="M272.4,394.95h-142.44v-18.08h142.44v18.08ZM130.96,394.05h140.44v-16.28h-140.44v16.28h0Z"/>
          <path class="cls-2" d="M271.4,394.85v-13.73h.51l34.43,1.15v3.93l-33.94,8.72-1-.07h0ZM272.4,382.14v11.81l32.93-8.61v-2.09l-32.93-1.11h0Z"/>
          <line class="cls-1" x1="119.52" y1="269.03" x2="119.52" y2="21.53"/>
          <polygon class="cls-2" points="123.61 265.72 122.88 265.04 119.52 268.65 116.16 265.04 115.43 265.72 119.52 270.12 123.61 265.72"/>
          <polyline class="cls-1" points="239.54 21.53 239.54 302.48 182.86 336.86"/>
          <polygon class="cls-2" points="183.58 331.64 184.54 331.91 183.19 336.66 188.02 337.65 187.82 338.63 181.94 337.42 183.58 331.64"/>
          <polyline class="cls-1" points="83.93 21.53 83.93 302.48 140.6 336.86"/>
          <polygon class="cls-2" points="135.64 338.63 135.44 337.65 140.27 336.66 138.92 331.91 139.89 331.64 141.52 337.42 135.64 338.63"/>
          <line class="cls-1" x1="202.46" y1="269.03" x2="202.46" y2="21.53"/>
          <polygon class="cls-2" points="206.55 265.72 205.82 265.04 202.46 268.65 199.11 265.04 198.37 265.72 202.46 270.12 206.55 265.72"/>
          <polyline class="cls-1" points="191.26 388.02 284.97 388.02 340.35 372.22"/>
          <polygon class="cls-2" points="338.93 376.93 338.05 376.47 340.3 372.08 335.76 370.16 336.14 369.24 341.67 371.58 338.93 376.93"/>
          <polygon class="cls-2" points="314.41 373.3 313.44 373.1 314.44 368.26 309.55 367.63 309.68 366.63 315.63 367.41 314.41 373.3"/>
          <line class="cls-1" x1="314.44" y1="368.26" x2="284.97" y2="388.02"/>
        </g>
      </g>
      <g id="outline">
        <path class="cls-2" d="M272.4,377.62H56.46V3.98h215.94v373.64h0ZM57.69,376.39h213.48V5.2H57.69v371.18h0Z"/>
        <rect class="cls-2" x="163.82" y="4.59" width="1.23" height="207.96"/>
        <path class="cls-2" d="M0,285.33l58.09-31.91v66.53H0v-34.62ZM56.86,318.72h0v-63.22L1.23,286.06v32.66h55.63Z"/>
        <polygon class="cls-2" points="276.81 8.56 275.58 8.56 275.58 1.23 54.16 1.23 54.16 8.56 52.93 8.56 52.93 0 276.81 0 276.81 8.56"/>
        <path class="cls-2" d="M177.73,387.23h-28.46v-10.84h28.46v10.84h0ZM150.5,386h26v-8.38h-26v8.38Z"/>
        <polygon class="cls-2" points="171.1 383.36 156.3 383.36 153.46 377.26 154.58 376.74 157.08 382.13 170.31 382.13 172.82 376.74 173.93 377.26 171.1 383.36"/>
        <rect class="cls-2" x="87.81" y="377" width="3.74" height="18.42"/>
        <rect class="cls-2" x="236.24" y="377" width="3.74" height="18.42"/>
        <rect class="cls-2" x="72.86" y="394.95" width="183.14" height="1.33"/>
        <path class="cls-2" d="M77.65,377v26.7c0,2.4,1.33,1.87,4.27,1.87s31.1.08,38.9.27c10.98.27,16.13,11.21,16.13,16.82,0,2.41.95,2.66,2.8,2.66h5.34v-5.07h-3.74s-2.85-17.81-20.47-18.81c-8.47-.48-15.2-.28-23.74-.28h-13.88c-.8,0-1.33-1.47-1.33-3.34v-20.82s-4.28,0-4.28,0Z"/>
        <path class="cls-2" d="M166.71,391.9h-6.97v-5.9h6.97v5.9ZM160.97,390.67h4.51v-3.44h-4.51v3.44Z"/>
        <path class="cls-2" d="M168.18,396.04h-9.91v-3.9h9.91v3.9ZM159.5,394.81h7.45v-1.44h-7.45v1.44Z"/>
        <path class="cls-2" d="M156.04,396.04h-3.9v-3.9h3.9v3.9ZM153.37,394.81h1.44v-1.44h-1.44v1.44Z"/>
        <path class="cls-2" d="M174.86,396.04h-3.9v-3.9h3.9v3.9ZM172.19,394.81h1.44v-1.44h-1.44v1.44Z"/>
        <path class="cls-2" d="M182.87,430.74h-38.34v-35.94h38.34v35.94ZM145.76,429.51h35.88v-33.48h-35.88v33.48Z"/>
        <rect class="cls-2" x="151.23" y="395.42" width="24.84" height="27.23"/>
        <polygon class="cls-2" points="173.68 377.53 173.06 376.47 271.47 319.42 272.09 320.48 173.68 377.53"/>
        <rect class="cls-2" x="104.76" y="291.31" width="1.23" height="113.33" transform="translate(-247.46 260.25) rotate(-59.19)"/>
        <path class="cls-2" d="M164.44,215.69c-1.14,0-2.07-.93-2.07-2.07s.93-2.07,2.07-2.07,2.07.93,2.07,2.07-.93,2.07-2.07,2.07ZM164.44,212.78c-.46,0-.84.38-.84.84s.38.84.84.84.84-.38.84-.84-.38-.84-.84-.84Z"/>
      </g>
    </g>
  </g>
</svg>