<?xml version="1.0" encoding="UTF-8"?>
<svg id="Layer_2" data-name="Layer 2" xmlns="http://www.w3.org/2000/svg" viewBox="0 0 510.41 704.98">
  <defs>
    <style>
      .cls-1 {
        fill: #fff;
        stroke-width: 0px;
      }
    </style>
  </defs>
  <g id="Layer_2-2" data-name="Layer 2">
    <g id="back">
      <g>
        <rect class="cls-1" x="501.46" y="50.68" width="1.07" height="653.76"/>
        <rect class="cls-1" x="498.81" y="703.91" width="6.95" height="1.07"/>
        <rect class="cls-1" x="498.52" y="50.15" width="6.95" height="1.07"/>
        <path class="cls-1" d="M300.29,454.21H69.23V54.4h231.06v399.8h0ZM70.55,452.89h228.43V55.72H70.55v397.17Z"/>
        <rect class="cls-1" x="184.11" y="55.06" width="1.32" height="221.61"/>
        <path class="cls-1" d="M8.39,355.46l62.16-34.15v71.19H8.39v-37.04ZM69.23,323.54l-59.53,32.7v34.94h59.53v-67.64h0Z"/>
        <path class="cls-1" d="M305.01,59.31h-1.32v-7.85H66.77v7.85h-1.32v-9.17h239.55v9.17h.01Z"/>
        <path class="cls-1" d="M48.15,703.6l-19.39-2.88.1-.65,38.4-258.91,19.39,2.87-.1.65-38.4,258.91h0ZM30.26,699.61l16.78,2.49,38.11-256.96-16.78-2.49-38.11,256.96h0Z"/>
        <path class="cls-1" d="M321.45,703.6l-.09-.65-38.4-258.91,19.39-2.87.09.65,38.4,258.91-19.39,2.87ZM284.44,445.14l38.11,256.96,16.78-2.49-38.11-256.96-16.78,2.49h0Z"/>
        <path class="cls-1" d="M337.58,684.73l19.79-15.16,9.96,13.58-26.28,20.52-313.35-.49-25.89-20.03,9.96-13.57,19.62,15.02.17.13h306.02ZM337.13,683.41H32.01l-20.5-15.71-11.51,15.69,27.25,21.09,314.02.49h.23l27.64-21.58-11.51-15.69-20.51,15.7h.01Z"/>
        <path class="cls-1" d="M198.99,464.49h-30.45v-11.6h30.45v11.6ZM169.86,463.17h27.82v-8.97h-27.82v8.97h0Z"/>
        <path class="cls-1" d="M191.9,460.35h-15.84l-3.03-6.52,1.19-.55,2.68,5.76h14.15l2.68-5.76,1.19.55-3.03,6.52h.01Z"/>
        <rect class="cls-1" x="102.78" y="453.55" width="4" height="19.71"/>
        <rect class="cls-1" x="261.61" y="453.55" width="4" height="19.71"/>
        <rect class="cls-1" x="86.79" y="472.75" width="195.96" height="1.43"/>
        <path class="cls-1" d="M91.92,453.55v28.57c0,2.57,1.43,2,4.57,2s33.28.08,41.62.28c11.75.28,17.26,12,17.26,18,0,2.58,1.01,2.85,3,2.85h5.71v-5.43h-4s-3.05-19.06-21.9-20.13c-9.07-.51-16.26-.3-25.4-.3h-14.85c-.86,0-1.43-1.57-1.43-3.57v-22.28h-4.58Z"/>
        <path class="cls-1" d="M187.21,469.49h-7.46v-6.31h7.46v6.31h0ZM181.07,468.17h4.83v-3.68h-4.83v3.68Z"/>
        <path class="cls-1" d="M188.78,473.92h-10.6v-4.17h10.6v4.17ZM179.5,472.6h7.97v-1.54h-7.97v1.54Z"/>
        <path class="cls-1" d="M175.78,473.92h-4.17v-4.17h4.17v4.17ZM172.93,472.6h1.54v-1.54h-1.54v1.54Z"/>
        <path class="cls-1" d="M195.92,473.92h-4.18v-4.17h4.17v4.17h0ZM193.06,472.6h1.54v-1.54h-1.54v1.54Z"/>
        <path class="cls-1" d="M204.49,511.05h-41.02v-38.45h41.02v38.45ZM164.79,509.74h38.39v-35.82h-38.39v35.82h0Z"/>
        <rect class="cls-1" x="170.64" y="473.26" width="26.58" height="29.14"/>
        <rect class="cls-1" x="193.77" y="450.93" width="7.89" height="1.32" transform="translate(-200.98 161.65) rotate(-30.33)"/>
        <path class="cls-1" d="M214.58,442.45l-.66-1.13,13.1-7.67.66,1.13-13.1,7.67ZM240.77,427.1l-.66-1.13,13.1-7.67.66,1.13-13.1,7.67ZM266.97,411.75l-.66-1.13,13.1-7.67.66,1.13-13.1,7.67Z"/>
        <rect class="cls-1" x="292.27" y="393.22" width="7.89" height="1.32" transform="translate(-158.36 203.49) rotate(-30.33)"/>
        <rect class="cls-1" x="72.63" y="389.89" width="1.32" height="7.9" transform="translate(-302.67 255.52) rotate(-59.26)"/>
        <path class="cls-1" d="M153.62,442.42l-12.88-7.66.67-1.13,12.88,7.66-.67,1.13ZM127.86,427.09l-12.88-7.66.67-1.13,12.88,7.66-.67,1.13ZM102.1,411.77l-12.88-7.66.67-1.13,12.88,7.66-.67,1.13h0Z"/>
        <rect class="cls-1" x="169.57" y="447.6" width="1.32" height="7.89" transform="translate(-304.87 366.97) rotate(-59.25)"/>
        <rect class="cls-1" x="92.05" y="75.09" width="1.07" height="5.35"/>
        <path class="cls-1" d="M93.11,356.91h-1.07v-10.63h1.07v10.63ZM93.11,335.65h-1.07v-10.63h1.07v10.63ZM93.11,314.38h-1.07v-10.63h1.07v10.63ZM93.11,293.11h-1.07v-10.63h1.07v10.63ZM93.11,271.84h-1.07v-10.63h1.07v10.63ZM93.11,250.57h-1.07v-10.63h1.07v10.63ZM93.11,229.31h-1.07v-10.63h1.07v10.63ZM93.11,208.04h-1.07v-10.63h1.07v10.63ZM93.11,186.77h-1.07v-10.63h1.07v10.63h0ZM93.11,165.5h-1.07v-10.63h1.07v10.63ZM93.11,144.24h-1.07v-10.63h1.07v10.63h0ZM93.11,122.97h-1.07v-10.63h1.07v10.63ZM93.11,101.7h-1.07v-10.63h1.07v10.63Z"/>
        <path class="cls-1" d="M96.89,376.11l-4.85-2.91v-5.65h1.07v5.05l4.33,2.59-.55.92h0Z"/>
        <path class="cls-1" d="M148.53,407.05l-8.6-5.16.55-.92,8.6,5.16-.55.92ZM131.32,396.74l-8.6-5.16.55-.92,8.6,5.16-.55.92h0ZM114.1,386.42l-8.6-5.16.55-.92,8.6,5.16-.55.92Z"/>
        <rect class="cls-1" x="159.17" y="410.42" width="1.07" height="5.35" transform="translate(-276.74 337.83) rotate(-59.08)"/>
        <path class="cls-1" d="M156.7,416.43l-.23-1.05,5.16-1.1-1.47-5.07,1.03-.3,1.79,6.17-6.29,1.33h0v.02Z"/>
        <rect class="cls-1" x="269.02" y="75.09" width="1.07" height="5.35"/>
        <path class="cls-1" d="M270.09,362.92h-1.07v-10.87h1.07v10.87ZM270.09,341.19h-1.07v-10.87h1.07v10.87ZM270.09,319.45h-1.07v-10.87h1.07v10.87ZM270.09,297.72h-1.07v-10.87h1.07v10.87ZM270.09,275.99h-1.07v-10.87h1.07v10.87ZM270.09,254.26h-1.07v-10.87h1.07v10.87ZM270.09,232.53h-1.07v-10.87h1.07v10.87ZM270.09,210.8h-1.07v-10.87h1.07v10.87ZM270.09,189.07h-1.07v-10.87h1.07v10.87ZM270.09,167.34h-1.07v-10.87h1.07v10.87ZM270.09,145.61h-1.07v-10.87h1.07v10.87ZM270.09,123.88h-1.07v-10.87h1.07v10.87ZM270.09,102.15h-1.07v-10.87h1.07v10.87Z"/>
        <path class="cls-1" d="M265.19,382.28l-.54-.93,4.36-2.53v-5.04h1.07v5.66l-4.89,2.83h0Z"/>
        <path class="cls-1" d="M216.67,410.39l-.53-.93,8.09-4.69.54.93-8.09,4.69h0ZM232.85,401.01l-.54-.93,8.09-4.69.54.93-8.09,4.69ZM249.02,391.64l-.54-.93,8.09-4.69.54.93-8.09,4.69h0Z"/>
        <rect class="cls-1" x="203.33" y="415.41" width="5.35" height="1.07" transform="translate(-180.95 159.61) rotate(-30.13)"/>
        <path class="cls-1" d="M204.56,411.73l1.02.31-1.54,5.05,5.14,1.17-.24,1.04-6.27-1.43,1.88-6.14h0Z"/>
        <rect class="cls-1" x="224.93" y="75.09" width="1.07" height="5.35"/>
        <path class="cls-1" d="M225.99,250.42h-1.07v-10.62h1.07v10.62ZM225.99,229.17h-1.07v-10.62h1.07v10.62ZM225.99,207.92h-1.07v-10.62h1.07v10.62ZM225.99,186.68h-1.07v-10.62h1.07v10.62ZM225.99,165.43h-1.07v-10.62h1.07v10.62ZM225.99,144.18h-1.07v-10.62h1.07v10.62ZM225.99,122.93h-1.07v-10.62h1.07v10.62ZM225.99,101.69h-1.07v-10.62h1.07v10.62Z"/>
        <path class="cls-1" d="M225.99,355.75h-1.07v-10.7h1.07v10.7ZM225.99,334.35h-1.07v-10.7h1.07v10.7ZM225.99,312.95h-1.07v-10.7h1.07v10.7ZM225.99,291.56h-1.07v-10.7h1.07v10.7ZM225.99,270.16h-1.07v-4.92h1.07v4.92Z"/>
        <path class="cls-1" d="M229.84,352.2l-.78-.73-3.59,3.86-3.59-3.86-.78.73,4.38,4.71,4.38-4.71h-.02Z"/>
        <polygon class="cls-1" points="303.94 12.45 303.94 15.39 66.53 15.39 66.53 12.45 65.46 12.45 65.46 19.4 66.53 19.4 66.53 16.46 303.94 16.46 303.94 19.4 305.01 19.4 305.01 12.45 303.94 12.45"/>
        <path class="cls-1" d="M184.34,6.88h-3.93v-.72c0-.2.04-.4.11-.59.1-.26.25-.5.43-.71.21-.26.43-.51.67-.76l.44-.45c.09-.09.28-.3.59-.64.23-.23.42-.49.59-.77.09-.16.14-.34.15-.53,0-.26-.12-.5-.33-.64-.22-.15-.48-.23-.75-.23-.18,0-.36.02-.53.06-.17.03-.34.08-.51.13-.15.05-.39.15-.72.3v-.69c.34-.16.69-.28,1.06-.34.29-.06.58-.09.87-.09.32,0,.63.05.93.17.26.09.49.28.63.51.13.22.21.48.21.74,0,.32-.1.63-.26.9-.28.43-.62.83-1,1.18l-.48.47-.4.39c-.23.23-.43.47-.62.74-.16.26-.25.55-.26.86h3.12v.72h-.01Z"/>
        <path class="cls-1" d="M185.98,3.84c.19-.29.45-.54.75-.73.29-.19.63-.28.98-.28s.66.08.96.25c.29.15.53.4.69.69.17.32.25.67.24,1.03,0,.59-.2,1.16-.59,1.61-.39.45-.96.7-1.56.68-.7.03-1.36-.34-1.7-.95-.4-.74-.59-1.58-.56-2.42-.05-.91.2-1.81.72-2.56.45-.62,1.17-.97,1.94-.94.43,0,.86.06,1.27.19v.78c-.41-.21-.85-.32-1.31-.33-.56,0-1.08.3-1.34.8-.34.62-.51,1.32-.48,2.02v.17h-.01ZM187.5,6.42c.23,0,.44-.07.63-.19.22-.13.4-.34.5-.57.12-.26.19-.55.18-.84.02-.35-.09-.7-.31-.97-.21-.26-.54-.4-.87-.38-.37,0-.73.15-.97.44-.25.3-.39.68-.38,1.07-.02.38.12.76.37,1.04.21.25.52.4.85.4"/>
        <path class="cls-1" d="M191.49,3.05v-.52c.17-.04.32-.11.46-.23.11-.11.19-.23.25-.37.07-.17.1-.36.09-.55-.21.02-.43-.06-.57-.22-.11-.13-.18-.29-.18-.47,0-.19.07-.36.21-.49.13-.13.3-.2.47-.2.24,0,.46.11.6.3.18.24.27.53.25.83,0,.3-.07.6-.2.87-.13.26-.32.5-.55.69-.24.2-.53.32-.84.36"/>
        <path class="cls-1" d="M498.46,43.12v-.58c0-.39.04-.77.15-1.15.13-.37.32-.72.54-1.03.26-.38.47-.67.62-.88l.68-.9.25-.31c.19-.26.35-.55.47-.86h-3.36v-.78h4.12v.52c0,.2-.04.39-.12.57-.22.39-.47.77-.75,1.12-.1.14-.2.27-.3.41l-.43.61c-.28.39-.49.71-.62.94s-.23.47-.3.73c-.08.33-.11.66-.1,1v.58h-.85Z"/>
        <path class="cls-1" d="M504.47,42.47v-5.01c-.22.17-.44.33-.68.47-.29.16-.59.3-.91.4v-.7c.59-.24,1.12-.58,1.59-1.01h.78v5.84h1.56v.65h-3.93v-.65h1.59Z"/>
        <path class="cls-1" d="M508.83,39.29v-.52c.17-.04.32-.11.46-.23.11-.11.19-.23.25-.37.07-.17.1-.36.09-.55-.21.02-.43-.06-.57-.22-.11-.13-.18-.29-.19-.47,0-.19.07-.36.21-.49.13-.13.3-.2.48-.2.24,0,.46.11.6.3.18.24.27.53.25.83,0,.3-.07.6-.2.87-.13.26-.32.5-.55.69-.24.2-.53.32-.84.36"/>
        <rect class="cls-1" x="137.6" y="75.61" width="1.07" height="5.35"/>
        <path class="cls-1" d="M137.6,240.31h1.07v10.62h-1.07v-10.62ZM137.6,219.07h1.07v10.62h-1.07v-10.62ZM137.6,197.82h1.07v10.62h-1.07v-10.62ZM137.6,176.57h1.07v10.62h-1.07v-10.62ZM137.6,155.32h1.07v10.62h-1.07v-10.62ZM137.6,134.07h1.07v10.62h-1.07v-10.62ZM137.6,112.83h1.07v10.62h-1.07v-10.62ZM137.6,91.58h1.07v10.62h-1.07v-10.62h0Z"/>
        <path class="cls-1" d="M133.97,270.32l3.63-3.63v-5.13h1.07v5.57l-3.94,3.94-.76-.76h0Z"/>
        <rect class="cls-1" x="125.56" y="276.13" width="5.63" height="1.07" transform="translate(-158.03 171.81) rotate(-45)"/>
        <rect class="cls-1" x="117.85" y="284.01" width="5.35" height="1.07" transform="translate(-165.89 168.51) rotate(-44.99)"/>
        <path class="cls-1" d="M117.8,287.24l.23-6.42,1.07.04-.19,5.27,5.27-.19.04,1.07-6.42.23h0Z"/>
        <path class="cls-1" d="M137.6,345.57h1.07v10.7h-1.07v-10.7ZM137.6,324.17h1.07v10.7h-1.07v-10.7ZM137.6,302.77h1.07v10.7h-1.07v-10.7ZM137.6,281.38h1.07v10.7h-1.07v-10.7ZM137.6,265.75h1.07v4.92h-1.07v-4.92Z"/>
        <path class="cls-1" d="M138.13,357.43l4.38-4.71-.78-.73-3.59,3.86-3.59-3.86-.78.73,4.38,4.71h-.02Z"/>
        <rect class="cls-1" x="75.18" y="382.64" width="5.93" height="1.45" transform="translate(-248.49 167.99) rotate(-45.08)"/>
        <path class="cls-1" d="M88.44,374.06l-1.03-1.02,14.21-14.26,1.03,1.02-14.21,14.26ZM116.76,345.64l-1.03-1.03,14.21-14.26,1.03,1.03-14.21,14.26ZM145.08,317.23l-1.03-1.03,14.21-14.26,1.03,1.02-14.21,14.27h0ZM173.4,288.81l-1.03-1.02,3.86-3.87,1.03,1.02-3.86,3.87Z"/>
        <polygon class="cls-1" points="188.39 281.13 184.76 277.41 181.09 281.09 180.06 280.06 184.77 275.35 189.43 280.11 188.39 281.13"/>
        <g>
          <path class="cls-1" d="M300.22,472.83h-142.51v-20.05h142.51v20.05ZM158.71,471.83h140.51v-18.05h-140.51v18.05Z"/>
          <path class="cls-1" d="M299.22,472.92v-14h.51l56.4,1.15v3.93l-56.91,8.92ZM300.22,459.93v11.81l54.91-8.61v-2.09l-54.91-1.11h0Z"/>
          <g>
            <rect class="cls-1" x="29.85" y="465.42" width="5" height="1"/>
            <path class="cls-1" d="M335.67,466.42h-10.03v-1h10.03v1ZM315.61,466.42h-10.03v-1h10.03v1ZM295.56,466.42h-10.03v-1h10.03v1ZM275.5,466.42h-10.03v-1h10.03v1ZM255.45,466.42h-10.03v-1h10.03v1ZM235.39,466.42h-10.03v-1h10.03v1ZM215.34,466.42h-10.03v-1h10.03v1ZM195.28,466.42h-10.03v-1h10.03v1ZM175.23,466.42h-10.03v-1h10.03v1ZM155.18,466.42h-10.03v-1h10.03v1ZM135.12,466.42h-10.03v-1h10.03v1ZM115.07,466.42h-10.03v-1h10.03v1ZM95.01,466.42h-10.03v-1h10.03v1ZM74.96,466.42h-10.03v-1h10.03v1ZM54.9,466.42h-10.03v-1h10.03v1ZM344.4,461.69l-.62-.79,7.88-6.2.62.79-7.88,6.2ZM360.16,449.28l-.62-.79,7.88-6.2.62.79-7.88,6.2Z"/>
            <rect class="cls-1" x="375.07" y="434.41" width="5" height="1" transform="translate(-188.21 327.22) rotate(-38.26)"/>
            <polygon class="cls-1" points="33.16 470.01 33.84 469.27 30.23 465.92 33.84 462.56 33.16 461.83 28.76 465.92 33.16 470.01"/>
            <polygon class="cls-1" points="379.46 438.65 378.47 438.5 379.23 433.63 374.32 433.22 374.4 432.22 380.39 432.72 379.46 438.65"/>
          </g>
          <g>
            <path class="cls-1" d="M334.53,466.14l-.9-.44,4.43-8.97.9.44-4.43,8.97ZM343.38,448.2l-.9-.44,4.43-8.97.9.44-4.43,8.97ZM352.23,430.27l-.9-.44,4.43-8.97.9.44-4.43,8.97ZM361.08,412.34l-.9-.44,4.43-8.97.9.44-4.43,8.97ZM369.93,394.4l-.9-.44,1.38-2.81.9.44-1.38,2.81Z"/>
            <polygon class="cls-1" points="373.07 396.15 372.11 396.44 370.7 391.72 366.09 393.47 365.74 392.53 371.35 390.4 373.07 396.15"/>
          </g>
          <g>
            <path class="cls-1" d="M330.71,466.4l-.23-.97,9.74-2.27.23.97-9.74,2.27ZM350.19,461.86l-.23-.97,9.74-2.27.23.97-9.74,2.27ZM369.66,457.31l-.23-.97,9.74-2.27.23.97-9.74,2.27ZM389.14,452.76l-.23-.97,9.74-2.27.23.97-9.74,2.27ZM408.61,448.21l-.23-.97,9.74-2.27.23.97-9.74,2.27ZM428.09,443.66l-.23-.97,9.74-2.27.23.97-9.74,2.27Z"/>
            <polygon class="cls-1" points="443.29 443.8 442.46 443.24 445.21 439.15 440.93 436.7 441.43 435.83 446.64 438.82 443.29 443.8"/>
          </g>
        </g>
      </g>
    </g>
  </g>
</svg>