<?xml version="1.0" encoding="UTF-8"?>
<svg id="Layer_2" data-name="Layer 2" xmlns="http://www.w3.org/2000/svg" viewBox="0 0 504.2 705.04">
  <defs>
    <style>
      .cls-1 {
        font-family: Monaco, Monaco;
        font-size: 9.17px;
        letter-spacing: -.02em;
      }

      .cls-1, .cls-2 {
        fill: #435d79;
      }
    </style>
  </defs>
  <g id="back">
    <g>
      <rect class="cls-2" x="492.57" y="50.74" width="1.07" height="653.76"/>
      <rect class="cls-2" x="489.62" y="703.96" width="6.95" height="1.07"/>
      <path class="cls-2" d="M300.29,454.26H69.23V54.46h231.06v399.8h0ZM70.55,452.95h228.43V55.78H70.55v397.17Z"/>
      <rect class="cls-2" x="184.11" y="55.12" width="1.32" height="221.61"/>
      <path class="cls-2" d="M361.14,393.75h-62.16v-71.19l62.16,34.15v37.04ZM300.29,392.43h59.53v-34.94l-59.53-32.7v67.64Z"/>
      <path class="cls-2" d="M305.01,59.37h-1.32v-7.85H66.77v7.85h-1.32v-9.17h239.55v9.17Z"/>
      <path class="cls-2" d="M48.15,703.66l-19.39-2.88.1-.65,38.4-258.91,19.39,2.87-.1.65-38.4,258.91h0ZM30.26,699.67l16.78,2.49,38.11-256.96-16.78-2.49-38.11,256.96h0Z"/>
      <path class="cls-2" d="M321.45,703.66l-.09-.65-38.4-258.91,19.39-2.87.09.65,38.4,258.91-19.39,2.87ZM284.44,445.2l38.11,256.96,16.78-2.49-38.11-256.96-16.78,2.49Z"/>
      <path class="cls-2" d="M337.58,684.78l19.79-15.16,9.96,13.58-26.28,20.52-313.35-.49-25.89-20.03,9.96-13.57,19.62,15.02.17.13h306.02ZM337.13,683.47H32.01l-20.5-15.71-11.51,15.69,27.25,21.09,314.02.49h.23l27.64-21.58-11.51-15.69-20.51,15.7h0Z"/>
      <path class="cls-2" d="M198.99,464.55h-30.45v-11.6h30.45v11.6ZM169.86,463.23h27.82v-8.97h-27.82v8.97h0Z"/>
      <path class="cls-2" d="M191.9,460.4h-15.84l-3.03-6.52,1.19-.55,2.68,5.76h14.15l2.68-5.76,1.19.55-3.03,6.52h0Z"/>
      <rect class="cls-2" x="102.78" y="453.6" width="4" height="19.71"/>
      <rect class="cls-2" x="261.61" y="453.6" width="4" height="19.71"/>
      <rect class="cls-2" x="86.79" y="472.81" width="195.96" height="1.43"/>
      <path class="cls-2" d="M91.92,453.61v28.57c0,2.57,1.43,2,4.57,2s33.28.08,41.62.28c11.75.28,17.26,12,17.26,18,0,2.58,1.01,2.85,3,2.85h5.71v-5.43h-4s-3.05-19.06-21.9-20.13c-9.07-.51-16.26-.3-25.4-.3h-14.85c-.86,0-1.43-1.57-1.43-3.57v-22.28h-4.57Z"/>
      <path class="cls-2" d="M187.21,469.55h-7.46v-6.31h7.46v6.31h0ZM181.07,468.23h4.83v-3.68h-4.83v3.68Z"/>
      <path class="cls-2" d="M188.78,473.97h-10.6v-4.17h10.6v4.17ZM179.5,472.66h7.97v-1.54h-7.97v1.54Z"/>
      <path class="cls-2" d="M175.78,473.97h-4.17v-4.17h4.17v4.17ZM172.93,472.66h1.54v-1.54h-1.54v1.54Z"/>
      <path class="cls-2" d="M195.92,473.97h-4.18v-4.17h4.17v4.17h0ZM193.06,472.66h1.54v-1.54h-1.54v1.54Z"/>
      <path class="cls-2" d="M204.49,511.11h-41.02v-38.45h41.02v38.45ZM164.79,509.8h38.39v-35.82h-38.39v35.82h0Z"/>
      <rect class="cls-2" x="170.64" y="473.31" width="26.58" height="29.14"/>
      <rect class="cls-2" x="193.77" y="450.99" width="7.89" height="1.32" transform="translate(-201.01 161.66) rotate(-30.33)"/>
      <path class="cls-2" d="M214.58,442.5l-.66-1.13,13.1-7.67.66,1.13-13.1,7.67ZM240.77,427.16l-.66-1.13,13.1-7.67.66,1.13-13.1,7.67ZM266.97,411.81l-.66-1.13,13.1-7.67.66,1.13-13.1,7.67Z"/>
      <rect class="cls-2" x="292.27" y="393.28" width="7.89" height="1.32" transform="translate(-158.39 203.5) rotate(-30.33)"/>
      <rect class="cls-2" x="72.64" y="389.95" width="1.32" height="7.9" transform="translate(-302.73 255.56) rotate(-59.26)"/>
      <path class="cls-2" d="M153.62,442.47l-12.88-7.66.67-1.13,12.88,7.66-.67,1.13ZM127.86,427.15l-12.88-7.66.67-1.13,12.88,7.66-.67,1.13ZM102.1,411.83l-12.88-7.66.67-1.13,12.88,7.66-.67,1.13h0Z"/>
      <rect class="cls-2" x="169.57" y="447.66" width="1.32" height="7.89" transform="translate(-304.92 367) rotate(-59.25)"/>
      <rect class="cls-2" x="92.05" y="75.15" width="1.07" height="5.35"/>
      <path class="cls-2" d="M93.11,356.97h-1.07v-10.63h1.07v10.63ZM93.11,335.7h-1.07v-10.63h1.07v10.63ZM93.11,314.44h-1.07v-10.63h1.07v10.63ZM93.11,293.17h-1.07v-10.63h1.07v10.63ZM93.11,271.9h-1.07v-10.63h1.07v10.63ZM93.11,250.63h-1.07v-10.63h1.07v10.63ZM93.11,229.37h-1.07v-10.63h1.07v10.63ZM93.11,208.1h-1.07v-10.63h1.07v10.63ZM93.11,186.83h-1.07v-10.63h1.07v10.63h0ZM93.11,165.56h-1.07v-10.63h1.07v10.63ZM93.11,144.29h-1.07v-10.63h1.07v10.63h0ZM93.11,123.03h-1.07v-10.63h1.07v10.63ZM93.11,101.76h-1.07v-10.63h1.07v10.63Z"/>
      <path class="cls-2" d="M96.89,376.16l-4.85-2.91v-5.65h1.07v5.05l4.33,2.59-.55.92h0Z"/>
      <path class="cls-2" d="M148.53,407.11l-8.6-5.16.55-.92,8.6,5.16-.55.92ZM131.32,396.79l-8.6-5.16.55-.92,8.6,5.16-.55.92h0ZM114.1,386.48l-8.6-5.16.55-.92,8.6,5.16-.55.92Z"/>
      <rect class="cls-2" x="159.17" y="410.47" width="1.07" height="5.35" transform="translate(-276.79 337.86) rotate(-59.08)"/>
      <path class="cls-2" d="M156.48,415.44l5.16-1.1-1.47-5.07,1.03-.3,1.79,6.17-6.29,1.33-.23-1.04Z"/>
      <rect class="cls-2" x="269.02" y="75.15" width="1.07" height="5.35"/>
      <path class="cls-2" d="M270.09,362.97h-1.07v-10.87h1.07v10.87ZM270.09,341.24h-1.07v-10.87h1.07v10.87ZM270.09,319.51h-1.07v-10.87h1.07v10.87ZM270.09,297.78h-1.07v-10.87h1.07v10.87ZM270.09,276.05h-1.07v-10.87h1.07v10.87ZM270.09,254.32h-1.07v-10.87h1.07v10.87ZM270.09,232.59h-1.07v-10.87h1.07v10.87ZM270.09,210.86h-1.07v-10.87h1.07v10.87ZM270.09,189.13h-1.07v-10.87h1.07v10.87ZM270.09,167.4h-1.07v-10.87h1.07v10.87ZM270.09,145.67h-1.07v-10.87h1.07v10.87ZM270.09,123.94h-1.07v-10.87h1.07v10.87ZM270.09,102.21h-1.07v-10.87h1.07v10.87Z"/>
      <path class="cls-2" d="M265.19,382.34l-.54-.93,4.36-2.53v-5.04h1.07v5.66l-4.89,2.83h0Z"/>
      <path class="cls-2" d="M216.67,410.44l-.53-.93,8.09-4.69.54.93-8.09,4.69ZM232.85,401.07l-.54-.93,8.09-4.69.54.93-8.09,4.69ZM249.02,391.7l-.54-.93,8.09-4.69.54.93-8.09,4.69Z"/>
      <rect class="cls-2" x="203.34" y="415.47" width="5.35" height="1.07" transform="translate(-180.98 159.62) rotate(-30.13)"/>
      <path class="cls-2" d="M204.56,411.78l1.02.31-1.54,5.05,5.14,1.17-.24,1.04-6.27-1.43,1.88-6.14h0Z"/>
      <rect class="cls-2" x="224.93" y="75.15" width="1.07" height="5.35"/>
      <path class="cls-2" d="M225.99,250.48h-1.07v-10.62h1.07v10.62ZM225.99,229.23h-1.07v-10.62h1.07v10.62ZM225.99,207.98h-1.07v-10.62h1.07v10.62ZM225.99,186.73h-1.07v-10.62h1.07v10.62ZM225.99,165.49h-1.07v-10.62h1.07v10.62ZM225.99,144.24h-1.07v-10.62h1.07v10.62ZM225.99,122.99h-1.07v-10.62h1.07v10.62ZM225.99,101.74h-1.07v-10.62h1.07v10.62Z"/>
      <path class="cls-2" d="M228.86,270.62l-3.94-3.94v-5.57h1.07v5.13l3.63,3.63-.76.76h0Z"/>
      <rect class="cls-2" x="234.68" y="273.39" width="1.07" height="5.63" transform="translate(-126.41 247.22) rotate(-45)"/>
      <rect class="cls-2" x="242.55" y="281.38" width="1.07" height="5.35" transform="translate(-129.66 255.15) rotate(-45.01)"/>
      <path class="cls-2" d="M239.37,286.55l.04-1.07,5.27.19-.19-5.27,1.07-.04.23,6.42-6.42-.23h0Z"/>
      <path class="cls-2" d="M225.99,355.81h-1.07v-10.7h1.07v10.7ZM225.99,334.41h-1.07v-10.7h1.07v10.7ZM225.99,313.01h-1.07v-10.7h1.07v10.7ZM225.99,291.61h-1.07v-10.7h1.07v10.7ZM225.99,270.22h-1.07v-4.92h1.07v4.92Z"/>
      <path class="cls-2" d="M229.84,352.26l-.78-.73-3.59,3.86-3.59-3.86-.78.73,4.38,4.71,4.38-4.71Z"/>
      <polygon class="cls-2" points="303.94 12.5 303.94 15.45 66.53 15.45 66.53 12.5 65.46 12.5 65.46 19.46 66.53 19.46 66.53 16.52 303.94 16.52 303.94 19.46 305.01 19.46 305.01 12.5 303.94 12.5"/>
      <rect class="cls-2" x="137.6" y="75.67" width="1.07" height="5.35"/>
      <path class="cls-2" d="M137.6,240.37h1.07v10.62h-1.07v-10.62ZM137.6,219.12h1.07v10.62h-1.07v-10.62ZM137.6,197.88h1.07v10.62h-1.07v-10.62ZM137.6,176.63h1.07v10.62h-1.07v-10.62ZM137.6,155.38h1.07v10.62h-1.07v-10.62ZM137.6,134.13h1.07v10.62h-1.07v-10.62ZM137.6,112.88h1.07v10.62h-1.07v-10.62ZM137.6,91.64h1.07v10.62h-1.07v-10.62h0Z"/>
      <path class="cls-2" d="M137.6,345.63h1.07v10.7h-1.07v-10.7ZM137.6,324.23h1.07v10.7h-1.07v-10.7ZM137.6,302.83h1.07v10.7h-1.07v-10.7ZM137.6,281.43h1.07v10.7h-1.07v-10.7ZM137.6,260.5h1.07v10.23h-1.07v-10.23Z"/>
      <path class="cls-2" d="M138.13,357.49l4.38-4.71-.78-.73-3.59,3.86-3.59-3.86-.78.73,4.38,4.71Z"/>
      <polygon class="cls-2" points="188.39 281.18 184.76 277.47 181.09 281.15 180.06 280.12 184.77 275.4 189.43 280.17 188.39 281.18"/>
      <path class="cls-2" d="M279.3,374.36l-.03-.03-16.41-16.82,1.04-1.02.02.03,16.42,16.82-1.04,1.01ZM246.52,340.77l-.02-.03-16.42-16.82,1.04-1.02.03.03,16.41,16.83-1.04,1.01ZM213.74,307.17l-.02-.03-16.41-16.82,1.04-1.02.02.03,16.41,16.82-1.04,1.02Z"/>
      <rect class="cls-2" x="288.55" y="380.59" width="1.45" height="5.93" transform="translate(-185.63 311.07) rotate(-44.3)"/>
      <path class="cls-2" d="M8.31,356.71l62.16-34.15v71.19H8.31v-37.04ZM69.15,324.79l-59.53,32.7v34.94s59.53,0,59.53,0v-67.64Z"/>
      <path class="cls-2" d="M134.63,274.97l3.94-3.94v-5.57s-1.07,0-1.07,0v5.13s-3.63,3.63-3.63,3.63l.76.76h0Z"/>
      <rect class="cls-2" x="125.47" y="280.02" width="5.63" height="1.07" transform="translate(-160.81 172.88) rotate(-45)"/>
      <rect class="cls-2" x="117.71" y="288.06" width="5.35" height="1.07" transform="translate(-168.79 169.6) rotate(-44.99)"/>
      <path class="cls-2" d="M124.13,290.9l-.04-1.07-5.27.19.19-5.27-1.07-.04-.23,6.42,6.42-.23h0Z"/>
      <path class="cls-2" d="M89.11,373.35l16.42-16.82.02-.03,1.04,1.02-16.41,16.82-.03.03-1.04-1.01ZM121.89,339.75l16.41-16.83.03-.03,1.04,1.02-16.42,16.82-.02.03-1.04-1.01ZM154.67,306.15l16.41-16.82.02-.03,1.04,1.02-16.41,16.82-.02.03-1.04-1.02Z"/>
      <rect class="cls-2" x="77.21" y="382.83" width="5.93" height="1.45" transform="translate(-250.33 173.06) rotate(-45.7)"/>
      <path class="cls-2" d="M184.34,410.14l-1.45-.04v-21.79l1.45.04v21.79ZM184.34,366.62l-1.45-.04v-21.79l1.45.04v21.79ZM184.34,323.1l-1.45-.04v-21.79l1.45.04v21.79Z"/>
      <text class="cls-1" transform="translate(488.05 43.51)"><tspan x="0" y="0">50’</tspan></text>
      <text class="cls-1" transform="translate(180.56 8.06)"><tspan x="0" y="0">26’</tspan></text>
    </g>
  </g>
</svg>