<svg xmlns="http://www.w3.org/2000/svg" xmlns:xlink="http://www.w3.org/1999/xlink" width="932.122" height="1835.626" viewBox="0 0 932.122 1835.626"><defs><clipPath id="a"><rect width="932.122" height="1835.626" fill="none"/></clipPath></defs><path d="M704.6,922.43H39.271V51.032H704.6ZM41.4,920.3h661.08V53.159H41.4Z" transform="translate(65.256 84.799)" fill="#fff"/><path d="M722.728,65.206h-3.777V49.6H38.973V65.206H35.2V46.984H722.728Z" transform="translate(58.485 78.072)" fill="#fff"/><path d="M704.6,488.5H39.271V350.922H704.6ZM41.4,486.375h661.08V353.049H41.4Z" transform="translate(65.256 583.122)" fill="#fff"/><path d="M704.6,370.751H39.271V340.2H704.6ZM41.4,368.622h661.08V342.327H41.4Z" transform="translate(65.256 565.31)" fill="#fff"/><path d="M25.148,317.664H66.271v991.512H25.148ZM23.021,1311.3H68.4V315.537H23.021Z" transform="translate(38.254 524.323)" fill="#fff"/><path d="M290.435,317.664h41.123v991.512H290.435ZM288.308,1311.3H333.69V315.537H288.308Z" transform="translate(479.077 524.323)" fill="#fff"/><path d="M2.127,682.851h102.4v19.5H2.127ZM0,704.477H106.654V680.724H0Z" transform="translate(0 1131.149)" fill="#fff"/><path d="M290.247,682.851h102.4v19.5h-102.4Zm-2.127,21.626H394.774V680.724H288.12Z" transform="translate(478.765 1131.149)" fill="#fff"/><g clip-path="url(#a)"><path d="M193.644,297.842a47.333,47.333,0,1,1,47.335-47.333,47.387,47.387,0,0,1-47.335,47.333m0-92.539A45.206,45.206,0,1,0,238.85,250.51,45.255,45.255,0,0,0,193.644,205.3" transform="translate(243.123 337.616)" fill="#fff"/><path d="M255.568,326.117H153.457a13.7,13.7,0,0,1-13.686-13.686V210.323a13.7,13.7,0,0,1,13.686-13.686h102.11a13.7,13.7,0,0,1,13.686,13.686V312.431a13.7,13.7,0,0,1-13.686,13.686M153.457,198.764a11.574,11.574,0,0,0-11.56,11.56V312.431a11.574,11.574,0,0,0,11.56,11.56h102.11a11.571,11.571,0,0,0,11.557-11.56V210.323a11.571,11.571,0,0,0-11.557-11.56Z" transform="translate(232.255 326.749)" fill="#fff"/><path d="M143.952,208.95a7.927,7.927,0,1,1,7.926,7.927,7.925,7.925,0,0,1-7.926-7.927" transform="translate(239.203 334.039)" fill="#fff"/><path d="M178.5,208.95a7.926,7.926,0,1,1,7.926,7.927,7.925,7.925,0,0,1-7.926-7.927" transform="translate(296.611 334.039)" fill="#fff"/><path d="M143.952,243.292a7.927,7.927,0,1,1,7.926,7.926,7.926,7.926,0,0,1-7.926-7.926" transform="translate(239.203 391.103)" fill="#fff"/><path d="M178.5,243.292a7.926,7.926,0,1,1,7.926,7.926,7.925,7.925,0,0,1-7.926-7.926" transform="translate(296.611 391.103)" fill="#fff"/><path d="M196.071,121.644H156.7V51.032h39.372Zm-37.245-2.127h35.118V53.161H158.826Z" transform="translate(260.384 84.799)" fill="#fff"/><rect width="8.068" height="28.033" transform="translate(432.734 162.126)" fill="#fff"/><rect width="191.032" height="16.995" transform="translate(159.69 108.059)" fill="#fff"/><rect width="598.328" height="8.092" transform="translate(138.062 840.925)" fill="#fff"/><rect width="662.358" height="10.639" transform="translate(105.589 796.299)" fill="#fff"/><rect width="12.616" height="39.305" transform="translate(215.557 801.62)" fill="#fff"/><rect width="12.616" height="39.305" transform="translate(648.983 801.62)" fill="#fff"/><rect width="127.356" height="57.562" transform="translate(373.549 849.014)" fill="#fff"/><path d="M87.452,568.089H85.325v-16.54h2.127Zm0-37.815H85.325V509h2.127Zm0-42.552H85.325V466.447h2.127Zm0-42.552H85.325V423.895h2.127Zm0-42.552H85.325V381.342h2.127Zm0-42.55H85.325V338.793h2.127Zm0-42.552H85.325V296.24h2.127Zm0-42.552H85.325V253.688h2.127Zm0-42.552H85.325V211.135h2.127Zm0-42.552H85.325V168.583h2.127Zm0-42.55H85.325V126.033h2.127Zm0-42.552H85.325V83.481h2.127Z" transform="translate(141.783 138.719)" fill="#fff"/><path d="M82.455,263.806l1.557-1.451,7.141,7.684,7.144-7.684,1.56,1.451-8.7,9.356Z" transform="translate(137.015 435.953)" fill="#fff"/><path d="M245.553,568.089h-2.127v-16.54h2.127Zm0-37.815h-2.127V509h2.127Zm0-42.552h-2.127V466.447h2.127Zm0-42.552h-2.127V423.895h2.127Zm0-42.552h-2.127V381.342h2.127Zm0-42.55h-2.127V338.793h2.127Zm0-42.552h-2.127V296.24h2.127Zm0-42.552h-2.127V253.688h2.127Zm0-42.552h-2.127V211.135h2.127Zm0-42.552h-2.127V168.583h2.127Zm0-42.55h-2.127V126.033h2.127Zm0-42.552h-2.127V83.481h2.127Z" transform="translate(404.497 138.719)" fill="#fff"/><path d="M240.555,263.806l1.557-1.451,7.141,7.684,7.144-7.684,1.56,1.451-8.7,9.356Z" transform="translate(399.727 435.953)" fill="#fff"/><line x2="684.87" transform="translate(95.012 42.762)" fill="none" stroke="#fff" stroke-miterlimit="10" stroke-width="1"/><rect width="2.662" height="17.301" transform="translate(93.681 34.112)" fill="#fff"/><rect width="2.662" height="17.301" transform="translate(778.551 34.112)" fill="#fff"/><line y2="1724.905" transform="translate(909.039 109.39)" fill="none" stroke="#fff" stroke-miterlimit="10" stroke-width="1"/><rect width="17.301" height="2.662" transform="translate(900.387 108.059)" fill="#fff"/><rect width="17.301" height="2.662" transform="translate(900.387 1832.964)" fill="#fff"/><text transform="translate(895.064 92.571)" fill="#fff" font-size="20" font-family="Monaco"><tspan x="0" y="0" letter-spacing="-0.02em">63</tspan><tspan y="0">’</tspan></text><text transform="translate(420.774 17.427)" fill="#fff" font-size="20" font-family="Monaco"><tspan x="0" y="0" letter-spacing="-0.02em">24</tspan><tspan y="0">’</tspan></text></g></svg>