<svg xmlns="http://www.w3.org/2000/svg" xmlns:xlink="http://www.w3.org/1999/xlink" width="1305.922" height="1209.068" viewBox="0 0 1305.922 1209.068"><defs><clipPath id="a"><rect width="1305.922" height="1209.068" fill="none"/></clipPath></defs><path d="M1045.331,1045.978H62.681V63.328h982.65ZM64.47,1044.191h979.076V65.115H64.47Z" transform="translate(49.329 49.838)" fill="#fff"/><path d="M668.276,668.923H209.17V209.817H668.276Zm-457.319-1.787H666.489V211.6H210.957Z" transform="translate(164.613 165.122)" fill="#fff"/><rect width="1.787" height="370.2" transform="translate(831.363 833.783) rotate(-45)" fill="#fff"/><rect width="1.787" height="370.2" transform="translate(112.273 114.693) rotate(-45)" fill="#fff"/><rect width="370.2" height="1.787" transform="translate(112.273 1094.291) rotate(-45)" fill="#fff"/><rect width="370.2" height="1.787" transform="translate(831.363 375.2) rotate(-45)" fill="#fff"/><path d="M211.155,516.651l-1.263-1.263,12.636-12.636,1.263,1.263Zm25.271-25.271-1.263-1.263L247.8,477.48l1.265,1.263ZM261.7,466.108l-1.263-1.263,12.636-12.636,1.263,1.263Zm25.271-25.272-1.263-1.263,12.636-12.636,1.263,1.263Zm25.271-25.271-1.263-1.263,12.636-12.636,1.263,1.263Z" transform="translate(165.181 316.103)" fill="#fff"/><path d="M283.277,407.685l-1.787-.064.322-8.8-8.806.322-.063-1.787,10.725-.39Z" transform="translate(214.801 312.401)" fill="#fff"/><path d="M516.4,516.651l-12.636-12.636,1.263-1.263,12.636,12.636ZM491.125,491.38l-12.636-12.636,1.265-1.263,12.634,12.636Zm-25.272-25.271-12.636-12.636,1.263-1.263,12.636,12.636Zm-25.272-25.272L427.947,428.2l1.263-1.263,12.636,12.636Zm-25.271-25.271-12.636-12.636,1.263-1.263L416.574,414.3Z" transform="translate(316.897 316.103)" fill="#fff"/><path d="M408.694,397.35l-.064,1.787-8.8-.322.322,8.806-1.787.063-.39-10.725Z" transform="translate(313.195 312.399)" fill="#fff"/><path d="M403.938,324.949l-1.263-1.263,12.636-12.636,1.263,1.263Zm25.271-25.272-1.263-1.263,12.634-12.636,1.265,1.263Zm25.271-25.271-1.263-1.263,12.636-12.636,1.263,1.263Zm25.272-25.271-1.263-1.263,12.636-12.636,1.263,1.263Zm25.271-25.271-1.263-1.263L516.4,209.964l1.263,1.263Z" transform="translate(316.897 165.238)" fill="#fff"/><path d="M398.36,273.013l1.787.064-.322,8.8,8.806-.322.063,1.787-10.725.39Z" transform="translate(313.194 214.856)" fill="#fff"/><path d="M323.614,324.949l-12.636-12.636,1.263-1.263,12.636,12.636Zm-25.271-25.272-12.636-12.636,1.265-1.263,12.634,12.636Zm-25.272-25.271L260.435,261.77l1.263-1.263,12.636,12.636ZM247.8,249.135,235.163,236.5l1.263-1.263,12.636,12.636Zm-25.271-25.271-12.636-12.636,1.263-1.263L223.791,222.6Z" transform="translate(165.181 165.238)" fill="#fff"/><path d="M272.942,283.348l.064-1.787,8.8.322-.322-8.806,1.787-.063.39,10.725Z" transform="translate(214.8 214.857)" fill="#fff"/><path d="M1.787,294.393H112.012V454.04H1.787ZM0,455.827H113.8V292.606H0Z" transform="translate(0 230.275)" fill="#fff"/><rect width="112.01" height="1.787" transform="translate(0.893 603.597)" fill="#fff"/><path d="M725.375,455.827h-113.8V292.606h113.8ZM613.362,454.04H723.588V294.393H613.362Z" transform="translate(481.298 230.275)" fill="#fff"/><rect width="112.012" height="1.787" transform="translate(1093.768 603.597)" fill="#fff"/><path d="M293.746,1.786H453.393V112.011H293.746ZM291.959,113.8H455.178V0H291.959Z" transform="translate(229.766 0.001)" fill="#fff"/><rect width="1.787" height="112.013" transform="translate(602.443 0.894)" fill="#fff"/><path d="M293.746,614.7H453.393V724.927H293.746Zm-1.787,112.012H455.178v-113.8H291.959Z" transform="translate(229.766 482.353)" fill="#fff"/><rect width="1.787" height="112.012" transform="translate(602.443 1096.162)" fill="#fff"/><g clip-path="url(#a)"><path d="M307.25,362.183a54.287,54.287,0,1,1,54.287,54.287,54.286,54.286,0,0,1-54.287-54.287" transform="translate(241.8 242.308)" fill="#fff"/><path d="M166.183,567.12H164.4V549.25h1.787Zm0-35.74H164.4v-17.87h1.787Zm0-35.74H164.4v-17.87h1.787Zm0-35.74H164.4v-17.87h1.787Zm0-35.74H164.4v-17.87h1.787Zm0-35.74H164.4v-17.87h1.787Zm-12.823-22.916H135.49v-1.787h17.87Zm-35.74,0H99.75v-1.787h17.87Z" transform="translate(78.501 286.24)" fill="#fff"/><path d="M101.535,360.13l1.219,1.308-6.455,6,6.455,6-1.219,1.31-7.859-7.309Z" transform="translate(73.721 283.415)" fill="#fff"/><path d="M153.358,403.251h-17.87v-1.787h17.87Zm-35.74,0H99.749v-1.787h17.87Zm48.565-6.832H164.4v-17.87h1.787Zm0-35.74H164.4v-17.87h1.787Zm0-35.74H164.4V307.07h1.787Zm0-35.74H164.4V271.33h1.787Zm0-35.74H164.4v-17.87h1.787Zm0-35.74H164.4v-17.87h1.787Z" transform="translate(78.501 157.279)" fill="#fff"/><path d="M101.535,309.085l1.219,1.308-6.455,6,6.455,6-1.219,1.31-7.859-7.309Z" transform="translate(73.721 243.244)" fill="#fff"/><path d="M529.786,567.12H528V549.25h1.787Zm0-35.74H528v-17.87h1.787Zm0-35.74H528v-17.87h1.787Zm0-35.74H528v-17.87h1.787Zm0-35.74H528v-17.87h1.787Zm0-35.74H528v-17.87h1.787Zm64.646-22.916h-17.87v-1.787h17.87Zm-35.74,0h-17.87v-1.787h17.87Z" transform="translate(415.525 286.24)" fill="#fff"/><path d="M567.388,374.746l-1.219-1.308,6.455-6-6.455-6,1.219-1.31,7.859,7.309Z" transform="translate(445.564 283.416)" fill="#fff"/><path d="M594.434,403.251h-17.87v-1.787h17.87Zm-35.74,0h-17.87v-1.787h17.87Zm-28.908-6.832H528v-17.87h1.787Zm0-35.74H528v-17.87h1.787Zm0-35.74H528V307.07h1.787Zm0-35.74H528V271.33h1.787Zm0-35.74H528v-17.87h1.787Zm0-35.74H528v-17.87h1.787Z" transform="translate(415.525 157.279)" fill="#fff"/><path d="M567.388,323.7l-1.219-1.308,6.455-6-6.455-6,1.219-1.31,7.859,7.309Z" transform="translate(445.564 243.244)" fill="#fff"/><path d="M361.271,600.128h-1.787v-17.87h1.787Zm0-35.74h-1.787v-17.87h1.787Zm201.616-28.9h-17.87V533.7h17.87Zm-35.74,0h-17.87V533.7h17.87Zm-35.74,0h-17.87V533.7h17.87Zm-35.74,0H437.8V533.7h17.87Zm-35.74,0h-17.87V533.7h17.87Zm-35.74,0h-17.87V533.7h17.87Z" transform="translate(282.907 420.009)" fill="#fff"/><path d="M355.9,573.085l1.308-1.219,6,6.454,6-6.454,1.31,1.219-7.309,7.859Z" transform="translate(280.082 450.048)" fill="#fff"/><path d="M399.017,600.128H397.23v-17.87h1.787Zm0-35.74H397.23v-17.87h1.787Zm-6.833-28.9h-17.87V533.7h17.87Zm-35.74,0h-17.87V533.7h17.87Zm-35.74,0h-17.87V533.7H320.7Zm-35.74,0H267.1V533.7h17.87Zm-35.74,0h-17.87V533.7h17.87Zm-35.74,0h-17.87V533.7h17.87Z" transform="translate(153.946 420.009)" fill="#fff"/><path d="M304.85,573.085l1.308-1.219,6,6.454,6-6.454,1.31,1.219-7.309,7.859Z" transform="translate(239.911 450.048)" fill="#fff"/><path d="M562.887,171.879h-17.87v-1.787h17.87Zm-35.74,0h-17.87v-1.787h17.87Zm-35.74,0h-17.87v-1.787h17.87Zm-35.74,0H437.8v-1.787h17.87Zm-35.74,0h-17.87v-1.787h17.87Zm-35.74,0h-17.87v-1.787h17.87Zm-22.918-12.822h-1.787v-17.87h1.787Zm0-35.74h-1.787v-17.87h1.787Z" transform="translate(282.907 82.986)" fill="#fff"/><path d="M370.511,107.233l-1.308,1.219-6-6.455-6,6.455-1.31-1.219,7.309-7.859Z" transform="translate(280.083 78.205)" fill="#fff"/><path d="M392.184,171.879h-17.87v-1.787h17.87Zm-35.74,0h-17.87v-1.787h17.87Zm-35.74,0h-17.87v-1.787H320.7Zm-35.74,0H267.1v-1.787h17.87Zm-35.74,0h-17.87v-1.787h17.87Zm-35.74,0h-17.87v-1.787h17.87Zm185.531-12.822H397.23v-17.87h1.787Zm0-35.74H397.23v-17.87h1.787Z" transform="translate(153.946 82.986)" fill="#fff"/><path d="M319.467,107.233l-1.308,1.219-6-6.455-6,6.455-1.31-1.219,7.309-7.859Z" transform="translate(239.912 78.205)" fill="#fff"/><rect width="1.787" height="980.314" transform="translate(1290.348 114.953)" fill="#fff"/><rect width="11.615" height="1.787" transform="translate(1285.434 114.059)" fill="#fff"/><rect width="11.615" height="1.787" transform="translate(1285.434 1094.374)" fill="#fff"/><text transform="translate(1281.043 97.547)" fill="#fff" font-size="13" font-family="Monaco"><tspan x="0" y="0" letter-spacing="-0.02em">46</tspan><tspan y="0">’</tspan></text></g></svg>