<?xml version="1.0" encoding="UTF-8"?>
<svg id="Layer_2" data-name="Layer 2" xmlns="http://www.w3.org/2000/svg" viewBox="0 0 675.26 676.6">
  <defs>
    <style>
      .cls-1 {
        fill: #fff;
      }

      .cls-2 {
        fill: #4e6283;
      }
    </style>
  </defs>
  <g id="graphic">
    <g id="fiveInOne">
      <g id="timer">
        <rect class="cls-2" x="209.67" y="210.82" width="254.92" height="254.92"/>
        <g>
          <g>
            <path class="cls-1" d="m209.27,465.8l-.71-.71,7.07-7.07.71.71-7.07,7.07Zm14.14-14.14l-.71-.71,7.07-7.07.71.71-7.07,7.07Zm14.14-14.14l-.71-.71,7.07-7.07.71.71-7.07,7.07Zm14.14-14.14l-.71-.71,7.07-7.07.71.71-7.07,7.07Zm14.14-14.14l-.71-.71,7.07-7.07.71.71-7.07,7.07Z"/>
            <polygon class="cls-1" points="277.4 402.75 276.4 402.71 276.58 397.79 271.65 397.97 271.61 396.97 277.62 396.75 277.4 402.75"/>
          </g>
          <g>
            <path class="cls-1" d="m464.99,465.8l-7.07-7.07.71-.71,7.07,7.07-.71.71Zm-14.14-14.14l-7.07-7.07.71-.71,7.07,7.07-.71.71Zm-14.14-14.14l-7.07-7.07.71-.71,7.07,7.07-.71.71Zm-14.14-14.14l-7.07-7.07.71-.71,7.07,7.07-.71.71Zm-14.14-14.14l-7.07-7.07.71-.71,7.07,7.07-.71.71Z"/>
            <polygon class="cls-1" points="402.64 396.96 402.61 397.97 397.68 397.78 397.86 402.71 396.86 402.75 396.64 396.75 402.64 396.96"/>
          </g>
          <g>
            <path class="cls-1" d="m402.05,274.1l-.71-.71,7.07-7.07.71.71-7.07,7.07Zm14.14-14.14l-.71-.71,7.07-7.07.71.71-7.07,7.07Zm14.14-14.14l-.71-.71,7.07-7.07.71.71-7.07,7.07Zm14.14-14.14l-.71-.71,7.07-7.07.71.71-7.07,7.07Zm14.14-14.14l-.71-.71,7.07-7.07.71.71-7.07,7.07Z"/>
            <polygon class="cls-1" points="396.86 272.8 397.86 272.84 397.68 277.76 402.61 277.58 402.64 278.58 396.64 278.8 396.86 272.8"/>
          </g>
          <g>
            <path class="cls-1" d="m272.2,274.1l-7.07-7.07.71-.71,7.07,7.07-.71.71Zm-14.14-14.14l-7.07-7.07.71-.71,7.07,7.07-.71.71Zm-14.14-14.14l-7.07-7.07.71-.71,7.07,7.07-.71.71Zm-14.14-14.14l-7.07-7.07.71-.71,7.07,7.07-.71.71Zm-14.14-14.14l-7.07-7.07.71-.71,7.07,7.07-.71.71Z"/>
            <polygon class="cls-1" points="271.61 278.58 271.65 277.58 276.58 277.76 276.4 272.84 277.4 272.8 277.62 278.8 271.61 278.58"/>
          </g>
        </g>
      </g>
      <g id="gravity">
        <path class="cls-2" d="m63.68,64.83v548.04h548.04V64.83H63.68Zm402.26,401.61h-255.77v-255.77h255.77v255.77Z"/>
        <g>
          <g>
            <path class="cls-1" d="m365.15,570.49h-1v-10h1v10Zm0-20h-1v-10h1v10Zm112.82-16.18h-10v-1h10v1Zm-20,0h-10v-1h10v1Zm-20,0h-10v-1h10v1Zm-20,0h-10v-1h10v1Zm-20,0h-10v-1h10v1Zm-20,0h-10v-1h10v1Z"/>
            <polygon class="cls-1" points="360.56 572.16 361.29 571.48 364.65 575.09 368.01 571.48 368.74 572.16 364.65 576.56 360.56 572.16"/>
          </g>
          <g>
            <path class="cls-1" d="m314.11,570.49h-1v-10h1v10Zm0-20h-1v-10h1v10Zm-3.82-16.18h-10v-1h10v1Zm-20,0h-10v-1h10v1Zm-20,0h-10v-1h10v1Zm-20,0h-10v-1h10v1Zm-20,0h-10v-1h10v1Zm-20,0h-10v-1h10v1Z"/>
            <polygon class="cls-1" points="309.52 572.16 310.25 571.48 313.61 575.09 316.96 571.48 317.7 572.16 313.61 576.56 309.52 572.16"/>
          </g>
          <g>
            <path class="cls-1" d="m477.98,142.24h-10v-1h10v1Zm-20,0h-10v-1h10v1Zm-20,0h-10v-1h10v1Zm-20,0h-10v-1h10v1Zm-20,0h-10v-1h10v1Zm-20,0h-10v-1h10v1Zm-12.82-7.18h-1v-10h1v10Zm0-20h-1v-10h1v10Z"/>
            <polygon class="cls-1" points="368.74 103.39 368.01 104.07 364.65 100.46 361.29 104.07 360.56 103.39 364.65 98.99 368.74 103.39"/>
          </g>
          <g>
            <path class="cls-1" d="m310.28,142.24h-10v-1h10v1Zm-20,0h-10v-1h10v1Zm-20,0h-10v-1h10v1Zm-20,0h-10v-1h10v1Zm-20,0h-10v-1h10v1Zm-20,0h-10v-1h10v1Zm103.82-7.18h-1v-10h1v10Zm0-20h-1v-10h1v10Z"/>
            <polygon class="cls-1" points="317.7 103.39 316.96 104.07 313.61 100.46 310.25 104.07 309.52 103.39 313.61 98.99 317.7 103.39"/>
          </g>
          <g>
            <path class="cls-1" d="m141.59,477.16h-1v-10h1v10Zm0-20h-1v-10h1v10Zm0-20h-1v-10h1v10Zm0-20h-1v-10h1v10Zm0-20h-1v-10h1v10Zm0-20h-1v-10h1v10Zm-7.18-12.82h-10v-1h10v1Zm-20,0h-10v-1h10v1Z"/>
            <polygon class="cls-1" points="102.74 359.74 103.42 360.48 99.81 363.83 103.42 367.19 102.74 367.92 98.34 363.83 102.74 359.74"/>
          </g>
          <g>
            <path class="cls-1" d="m134.42,313.29h-10v-1h10v1Zm-20,0h-10v-1h10v1Zm27.18-3.82h-1v-10h1v10Zm0-20h-1v-10h1v10Zm0-20h-1v-10h1v10Zm0-20h-1v-10h1v10Zm0-20h-1v-10h1v10Zm0-20h-1v-10h1v10Z"/>
            <polygon class="cls-1" points="102.74 308.7 103.42 309.43 99.81 312.79 103.42 316.15 102.74 316.88 98.34 312.79 102.74 308.7"/>
          </g>
          <g>
            <path class="cls-1" d="m533.67,477.16h-1v-10h1v10Zm0-20h-1v-10h1v10Zm0-20h-1v-10h1v10Zm0-20h-1v-10h1v10Zm0-20h-1v-10h1v10Zm0-20h-1v-10h1v10Zm36.18-12.82h-10v-1h10v1Zm-20,0h-10v-1h10v1Z"/>
            <polygon class="cls-1" points="571.52 367.92 570.84 367.19 574.45 363.83 570.84 360.48 571.52 359.74 575.92 363.83 571.52 367.92"/>
          </g>
          <g>
            <path class="cls-1" d="m569.84,313.29h-10v-1h10v1Zm-20,0h-10v-1h10v1Zm-16.18-3.82h-1v-10h1v10Zm0-20h-1v-10h1v10Zm0-20h-1v-10h1v10Zm0-20h-1v-10h1v10Zm0-20h-1v-10h1v10Zm0-20h-1v-10h1v10Z"/>
            <polygon class="cls-1" points="571.52 316.88 570.84 316.15 574.45 312.79 570.84 309.43 571.52 308.7 575.92 312.79 571.52 316.88"/>
          </g>
        </g>
      </g>
      <g id="outline">
        <path class="cls-1" d="m612.58,613.22H62.68V63.33h549.89v549.89Zm-548.89-1h547.89V64.33H63.68v547.89Z"/>
        <path class="cls-1" d="m466.09,466.73H209.17V209.82h256.92v256.92Zm-255.92-1h254.92v-254.92h-254.92v254.92Z"/>
        <rect class="cls-1" x="538.33" y="435.89" width="1" height="207.17" transform="translate(-223.65 539.02) rotate(-45)"/>
        <rect class="cls-1" x="135.93" y="33.49" width="1" height="207.17" transform="translate(-56.97 136.62) rotate(-45)"/>
        <rect class="cls-1" x="32.84" y="538.98" width="207.17" height="1" transform="translate(-341.51 254.48) rotate(-45)"/>
        <rect class="cls-1" x="435.25" y="136.57" width="207.17" height="1" transform="translate(60.9 421.16) rotate(-45)"/>
        <path class="cls-1" d="m63.68,383.94H0v-91.34h63.68v91.34Zm-62.68-1h61.68v-89.34H1v89.34Z"/>
        <rect class="cls-1" x=".5" y="337.77" width="62.68" height="1"/>
        <path class="cls-1" d="m675.26,383.94h-63.68v-91.34h63.68v91.34Zm-62.68-1h61.68v-89.34h-61.68v89.34Z"/>
        <rect class="cls-1" x="612.08" y="337.77" width="62.68" height="1"/>
        <path class="cls-1" d="m383.3,63.68h-91.34V0h91.34v63.68Zm-90.34-1h89.34V1h-89.34v61.68Z"/>
        <rect class="cls-1" x="337.13" y=".5" width="1" height="62.68"/>
        <path class="cls-1" d="m383.3,676.6h-91.34v-63.68h91.34v63.68Zm-90.34-1h89.34v-61.68h-89.34v61.68Z"/>
        <rect class="cls-1" x="337.13" y="613.42" width="1" height="62.68"/>
        <circle class="cls-1" cx="337.63" cy="338.27" r="30.38"/>
      </g>
    </g>
  </g>
</svg>