<?xml version="1.0" encoding="UTF-8"?><svg id="Layer_1" xmlns="http://www.w3.org/2000/svg" xmlns:xlink="http://www.w3.org/1999/xlink" viewBox="0 0 1052.86 1783"><defs><style>.cls-1{clip-path:url(#clippath);}.cls-2,.cls-3,.cls-4,.cls-5,.cls-6{fill:none;}.cls-2,.cls-7{stroke-width:0px;}.cls-3{stroke-dasharray:0 0 27.66 27.66;}.cls-3,.cls-4,.cls-5,.cls-6{stroke:#fff;stroke-miterlimit:10;stroke-width:2px;}.cls-5{stroke-dasharray:0 0 32.36 32.36;}.cls-6{stroke-dasharray:0 0 30 30;}.cls-7{fill:#fff;}</style><clipPath id="clippath"><rect class="cls-2" width="1052.86" height="1783"/></clipPath></defs><rect class="cls-7" x="1030.2" y="128.18" width="2.71" height="1653.47"/><rect class="cls-7" x="1022.76" y="1780.3" width="17.59" height="2.71"/><rect class="cls-7" x="1022.76" y="126.83" width="17.59" height="2.71"/><path class="cls-7" d="m759.5,1148.76H175.1V137.58h584.4v1011.17Zm-581.07-3.33h577.74V140.91H178.43v1004.52Z"/><rect class="cls-7" x="465.64" y="139.25" width="3.33" height="560.49"/><path class="cls-7" d="m913.39,995.7h-157.21v-180.04l157.21,86.36v93.68Zm-153.89-3.33h150.56v-88.38l-150.56-82.7v171.08Z"/><path class="cls-7" d="m21.22,899.02l157.21-86.36v180.04H21.22v-93.68Zm153.88-80.73l-150.56,82.7v88.38s150.56,0,150.56,0v-171.08Z"/><path class="cls-7" d="m771.42,150h-3.33v-19.85H168.88v19.85h-3.33v-23.18h605.87v23.18Z"/><path class="cls-7" d="m121.78,1779.52l-49.03-7.28.25-1.64,97.12-654.84,49.03,7.27-.25,1.64-97.12,654.84Zm-45.25-10.08l42.44,6.3,96.39-649.9-42.44-6.29-96.39,649.9Z"/><path class="cls-7" d="m813,1779.52l-.24-1.65-97.13-654.84,49.03-7.27.24,1.65,97.13,654.84-49.03,7.27Zm-93.59-653.68l96.39,649.9,42.45-6.3-96.39-649.9-42.45,6.3Z"/><path class="cls-7" d="m853.79,1731.79l50.05-38.35,25.18,34.34-66.46,51.89-792.51-1.25-65.47-50.65,25.18-34.33,49.61,38,.44.34h773.95Zm-1.13-3.33H80.97l-51.86-39.73-29.11,39.69,68.93,53.33,794.21,1.25h.58l69.91-54.58-29.1-39.68-51.87,39.72Z"/><path class="cls-7" d="m503.29,1174.77h-77.02v-29.34h77.02v29.34Zm-73.69-3.33h70.36v-22.68h-70.36v22.68Z"/><path class="cls-7" d="m485.34,1164.29h-40.05l-7.67-16.49,3.02-1.4,6.78,14.57h35.8l6.78-14.57,3.01,1.4-7.67,16.49Z"/><rect class="cls-7" x="259.96" y="1147.09" width="10.11" height="49.85"/><rect class="cls-7" x="661.65" y="1147.09" width="10.11" height="49.85"/><rect class="cls-7" x="219.5" y="1195.66" width="495.61" height="3.61"/><g class="cls-1"><path class="cls-7" d="m232.47,1147.1v72.25c0,6.5,3.61,5.06,11.56,5.06s84.16.21,105.26.72c29.71.72,43.65,30.34,43.65,45.53,0,6.52,2.56,7.21,7.58,7.21h14.45v-13.73h-10.11s-7.72-48.2-55.4-50.91c-22.93-1.3-41.13-.75-64.25-.75h-37.57c-2.17,0-3.61-3.97-3.61-9.03v-56.35h-11.56Z"/><path class="cls-7" d="m473.48,1187.41h-18.86v-15.97h18.86v15.97Zm-15.53-3.33h12.21v-9.31h-12.21v9.31Z"/><path class="cls-7" d="m477.46,1198.61h-26.81v-10.55h26.81v10.55Zm-23.48-3.33h20.15v-3.9h-20.15v3.9Z"/><path class="cls-7" d="m444.58,1198.61h-10.55v-10.55h10.55v10.55Zm-7.22-3.33h3.9v-3.9h-3.9v3.9Z"/><path class="cls-7" d="m495.52,1198.61h-10.56v-10.55h10.55v10.55Zm-7.23-3.33h3.9v-3.9h-3.9v3.9Z"/><path class="cls-7" d="m517.2,1292.53h-103.75v-97.25h103.75v97.25Zm-100.42-3.32h97.1v-90.6h-97.1v90.6Z"/><rect class="cls-7" x="431.58" y="1196.94" width="67.22" height="73.69"/><rect class="cls-7" x="490.14" y="1140.39" width="19.96" height="3.33" transform="translate(-508.32 408.95) rotate(-30.33)"/><path class="cls-7" d="m542.71,1119.02l-1.68-2.87,33.12-19.41,1.68,2.87-33.12,19.41Zm66.25-38.82l-1.68-2.87,33.12-19.41,1.68,2.87-33.12,19.41Zm66.25-38.82l-1.68-2.87,33.12-19.41,1.68,2.87-33.12,19.41Z"/><rect class="cls-7" x="739.24" y="994.43" width="19.96" height="3.33" transform="translate(-400.5 514.77) rotate(-30.33)"/><rect class="cls-7" x="183.69" y="986.16" width="3.33" height="19.97" transform="translate(-765.55 646.23) rotate(-59.26)"/><path class="cls-7" d="m388.54,1118.94l-32.57-19.38,1.7-2.86,32.57,19.38-1.7,2.86Zm-65.15-38.75l-32.57-19.38,1.7-2.86,32.57,19.38-1.7,2.86Zm-65.15-38.75l-32.57-19.38,1.7-2.86,32.57,19.38-1.7,2.86Z"/><rect class="cls-7" x="428.88" y="1132.01" width="3.33" height="19.96" transform="translate(-771.03 928.16) rotate(-59.25)"/><rect class="cls-7" x="232.8" y="189.91" width="2.71" height="13.53"/><path class="cls-7" d="m235.5,902.69h-2.71v-26.89h2.71v26.89Zm0-53.79h-2.71v-26.89h2.71v26.89Zm0-53.79h-2.71v-26.89h2.71v26.89Zm0-53.79h-2.71v-26.89h2.71v26.89Zm0-53.79h-2.71v-26.89h2.71v26.89Zm0-53.79h-2.71v-26.89h2.71v26.89Zm0-53.79h-2.71v-26.89h2.71v26.89Zm0-53.79h-2.71v-26.89h2.71v26.89Zm0-53.79h-2.71v-26.89h2.71v26.89Zm0-53.79h-2.71v-26.89h2.71v26.89Zm0-53.79h-2.71v-26.89h2.71v26.89Zm0-53.79h-2.71v-26.89h2.71v26.89Zm0-53.79h-2.71v-26.89h2.71v26.89Z"/><path class="cls-7" d="m245.06,951.23l-12.26-7.35v-14.3h2.71v12.77l10.95,6.56-1.39,2.32Z"/><path class="cls-7" d="m375.65,1029.5l-21.76-13.04,1.39-2.32,21.76,13.04-1.39,2.32Zm-43.53-26.09l-21.76-13.05,1.39-2.32,21.76,13.04-1.39,2.32Zm-43.53-26.09l-21.76-13.04,1.39-2.32,21.76,13.04-1.39,2.32Z"/><rect class="cls-7" x="402.56" y="1038.09" width="2.71" height="13.53" transform="translate(-699.99 854.39) rotate(-59.08)"/><path class="cls-7" d="m396.33,1053.22l-.57-2.65,13.06-2.77-3.71-12.82,2.6-.75,4.52,15.61-15.9,3.37Z"/><rect class="cls-7" x="680.4" y="189.91" width="2.71" height="13.53"/><path class="cls-7" d="m683.1,917.87h-2.71v-27.48h2.71v27.48Zm0-54.96h-2.71v-27.48h2.71v27.48Zm0-54.96h-2.71v-27.48h2.71v27.48Zm0-54.96h-2.71v-27.48h2.71v27.48Zm0-54.96h-2.71v-27.48h2.71v27.48Zm0-54.96h-2.71v-27.48h2.71v27.48Zm0-54.96h-2.71v-27.48h2.71v27.48Zm0-54.96h-2.71v-27.48h2.71v27.48Zm0-54.96h-2.71v-27.48h2.71v27.48Zm0-54.96h-2.71v-27.48h2.71v27.48Zm0-54.96h-2.71v-27.48h2.71v27.48Zm0-54.96h-2.71v-27.48h2.71v27.48Zm0-54.96h-2.71v-27.48h2.71v27.48Z"/><path class="cls-7" d="m670.72,966.84l-1.36-2.34,11.03-6.39v-12.75h2.71v14.31l-12.38,7.17Z"/><path class="cls-7" d="m548.01,1037.93l-1.35-2.34,20.45-11.85,1.36,2.34-20.46,11.85Zm40.9-23.7l-1.36-2.34,20.45-11.85,1.36,2.34-20.45,11.85Zm40.9-23.7l-1.36-2.34,20.45-11.85,1.36,2.34-20.45,11.85Z"/><rect class="cls-7" x="514.26" y="1050.65" width="13.53" height="2.71" transform="translate(-457.66 403.66) rotate(-30.13)"/><path class="cls-7" d="m517.38,1041.32l2.59.79-3.9,12.76,13.01,2.96-.6,2.64-15.85-3.61,4.75-15.54Z"/><rect class="cls-7" x="568.88" y="189.91" width="2.71" height="13.53"/><path class="cls-7" d="m571.58,633.35h-2.71v-26.87h2.71v26.87Zm0-53.74h-2.71v-26.87h2.71v26.87Zm0-53.74h-2.71v-26.87h2.71v26.87Zm0-53.74h-2.71v-26.87h2.71v26.87Zm0-53.74h-2.71v-26.87h2.71v26.87Zm0-53.74h-2.71v-26.87h2.71v26.87Zm0-53.74h-2.71v-26.87h2.71v26.87Zm0-53.74h-2.71v-26.87h2.71v26.87Z"/><path class="cls-7" d="m578.84,684.28l-9.96-9.96v-14.09h2.71v12.97l9.17,9.17-1.91,1.91Z"/><rect class="cls-7" x="593.55" y="691.3" width="2.71" height="14.24" transform="translate(-319.62 625.22) rotate(-45)"/><rect class="cls-7" x="613.44" y="711.54" width="2.71" height="13.53" transform="translate(-327.86 645.24) rotate(-45.01)"/><path class="cls-7" d="m605.41,724.58l.1-2.71,13.33.49-.49-13.34,2.71-.1.59,16.24-16.24-.59Z"/><path class="cls-7" d="m571.58,899.75h-2.71v-27.06h2.71v27.06Zm0-54.12h-2.71v-27.06h2.71v27.06Zm0-54.12h-2.71v-27.06h2.71v27.06Zm0-54.12h-2.71v-27.06h2.71v27.06Zm0-54.12h-2.71v-12.45h2.71v12.45Z"/><path class="cls-7" d="m581.3,890.78l-1.98-1.85-9.09,9.77-9.09-9.77-1.98,1.85,11.07,11.9,11.07-11.9Z"/><rect class="cls-7" x="166.91" y="38.91" width="603.16" height="2.71"/><rect class="cls-7" x="165.55" y="31.47" width="2.71" height="17.59"/><rect class="cls-7" x="768.72" y="31.47" width="2.71" height="17.59"/><path class="cls-7" d="m466.22,17.39h-9.93v-1.81c0-.51.1-1.02.28-1.5.26-.65.63-1.26,1.09-1.79.53-.66,1.1-1.3,1.7-1.91l1.12-1.14c.23-.23.72-.77,1.48-1.62.57-.59,1.07-1.25,1.5-1.95.23-.41.36-.86.37-1.33.02-.65-.3-1.27-.84-1.63-.56-.38-1.22-.58-1.9-.58-.45,0-.91.05-1.35.14-.44.08-.87.19-1.3.32-.37.12-.98.38-1.82.76v-1.75c.85-.41,1.74-.7,2.67-.87.73-.14,1.47-.22,2.21-.24.8,0,1.6.13,2.35.42.67.24,1.23.7,1.6,1.3.34.56.52,1.21.52,1.87-.02.8-.25,1.59-.67,2.27-.72,1.1-1.57,2.1-2.53,2.99l-1.21,1.2-1.01.99c-.58.57-1.1,1.2-1.56,1.87-.41.65-.63,1.4-.65,2.17h7.89v1.81Z"/><path class="cls-7" d="m470.37,9.69c.49-.74,1.14-1.37,1.89-1.85.74-.47,1.6-.72,2.48-.71.85,0,1.68.21,2.43.62.74.39,1.35,1,1.75,1.74.42.8.62,1.7.6,2.6.02,1.49-.51,2.94-1.5,4.07-.98,1.15-2.43,1.78-3.94,1.73-1.77.08-3.44-.85-4.3-2.4-1.01-1.87-1.5-3.99-1.42-6.12-.13-2.3.51-4.58,1.81-6.48,1.14-1.56,2.97-2.45,4.9-2.38,1.09,0,2.18.16,3.22.48v1.98c-1.03-.52-2.16-.81-3.31-.84-1.42-.02-2.74.76-3.4,2.02-.86,1.57-1.28,3.33-1.21,5.12v.42Zm3.86,6.55c.57,0,1.12-.17,1.6-.47.56-.34,1-.85,1.26-1.45.31-.67.47-1.39.46-2.13.04-.89-.24-1.76-.78-2.46-.54-.65-1.36-1.01-2.21-.96-.94-.02-1.84.39-2.45,1.11-.64.76-.98,1.72-.96,2.71-.04.96.3,1.91.94,2.63.53.64,1.31,1.01,2.14,1.02"/><path class="cls-7" d="m484.32,7.7v-1.32c.43-.09.82-.29,1.16-.57.28-.27.49-.59.63-.94.17-.44.25-.92.24-1.39-.54.05-1.08-.16-1.45-.56-.29-.32-.46-.74-.46-1.18-.01-.47.18-.92.52-1.25.32-.32.75-.5,1.2-.5.6,0,1.17.29,1.53.77.46.6.69,1.34.64,2.1,0,.76-.17,1.52-.51,2.2-.33.67-.8,1.27-1.38,1.75-.61.5-1.35.81-2.13.9"/><path class="cls-7" d="m1022.61,109.04v-1.47c-.02-.98.11-1.96.39-2.9.34-.93.8-1.81,1.37-2.61.66-.96,1.18-1.7,1.58-2.22l1.71-2.27.62-.79c.49-.67.89-1.4,1.2-2.18h-8.51v-1.97h10.41v1.31c0,.5-.1.99-.31,1.45-.56.99-1.19,1.94-1.89,2.84-.25.35-.5.69-.75,1.04l-1.1,1.54c-.71.99-1.23,1.79-1.56,2.38-.33.58-.59,1.2-.77,1.85-.19.83-.28,1.68-.26,2.53v1.47h-2.14Z"/><path class="cls-7" d="m1037.81,107.4v-12.66c-.55.44-1.12.84-1.72,1.2-.73.41-1.5.75-2.29,1.01v-1.78c1.48-.61,2.83-1.47,4.02-2.55h1.97v14.77h3.94v1.64h-9.93v-1.64h4.02Z"/><path class="cls-7" d="m1048.84,99.35v-1.32c.43-.09.82-.29,1.16-.57.28-.27.49-.59.63-.94.17-.44.25-.92.24-1.39-.54.04-1.08-.16-1.45-.56-.29-.32-.46-.74-.47-1.18-.01-.47.18-.92.52-1.24.32-.32.75-.5,1.21-.5.6,0,1.17.29,1.53.77.46.6.69,1.34.64,2.1,0,.76-.17,1.52-.51,2.2-.33.67-.8,1.27-1.38,1.75-.61.5-1.35.81-2.13.9"/></g><rect class="cls-7" x="348.01" y="191.22" width="2.71" height="13.53"/><path class="cls-7" d="m348.01,607.79h2.71v26.87h-2.71v-26.87Zm0-53.74h2.71v26.87h-2.71v-26.87Zm0-53.74h2.71v26.87h-2.71v-26.87Zm0-53.74h2.71v26.87h-2.71v-26.87Zm0-53.74h2.71v26.87h-2.71v-26.87Zm0-53.74h2.71v26.87h-2.71v-26.87Zm0-53.74h2.71v26.87h-2.71v-26.87Zm0-53.74h2.71v26.87h-2.71v-26.87Z"/><path class="cls-7" d="m338.84,683.67l9.17-9.17v-12.97h2.71v14.09s-9.96,9.96-9.96,9.96l-1.91-1.91Z"/><rect class="cls-7" x="317.57" y="698.38" width="14.24" height="2.71" transform="translate(-399.69 434.54) rotate(-45)"/><rect class="cls-7" x="298.04" y="718.27" width="13.53" height="2.71" transform="translate(-419.53 426.2) rotate(-44.99)"/><path class="cls-7" d="m297.94,726.48l.59-16.24,2.71.1-.49,13.34,13.33-.49.1,2.71-16.24.59Z"/><path class="cls-7" d="m348.01,874h2.71v27.06h-2.71v-27.06Zm0-54.12h2.71v27.06h-2.71v-27.06Zm0-54.12h2.71v27.06h-2.71v-27.06Zm0-54.12h2.71v27.06h-2.71v-27.06Zm0-39.51h2.71v12.45h-2.71v-12.45Z"/><path class="cls-7" d="m349.36,903.99l11.07-11.9-1.98-1.85-9.09,9.77-9.09-9.77-1.98,1.85,11.07,11.9Z"/><line class="cls-4" x1="192.32" y1="974.91" x2="202.91" y2="964.28"/><line class="cls-3" x1="222.43" y1="944.69" x2="446.95" y2="719.41"/><polyline class="cls-4" points="456.71 709.62 467.3 699 477.78 709.73"/><line class="cls-5" x1="500.38" y1="732.9" x2="715.09" y2="952.97"/><line class="cls-4" x1="726.39" y1="964.55" x2="736.87" y2="975.29"/><line class="cls-6" x1="464.4" y1="761.92" x2="464.4" y2="1058.05"/></svg>