<svg xmlns="http://www.w3.org/2000/svg" xmlns:xlink="http://www.w3.org/1999/xlink" width="1052.863" height="1783.003" viewBox="0 0 1052.863 1783.003"><defs><clipPath id="a"><rect width="1052.863" height="1783.003" fill="none"/></clipPath></defs><rect width="2.706" height="1653.468" transform="translate(1030.204 128.182)" fill="#fff"/><rect width="17.591" height="2.706" transform="translate(1022.759 1780.296)" fill="#fff"/><rect width="17.591" height="2.706" transform="translate(1022.759 126.826)" fill="#fff"/><path d="M649.1,1062.012H64.7V50.839H649.1Zm-581.068-3.326H645.772V54.168H68.033Z" transform="translate(110.402 86.744)" fill="#fff"/><rect width="3.329" height="503.924" transform="translate(465.641 139.248)" fill="#fff"/><path d="M436.631,480.328H279.417V300.292l157.214,86.357ZM282.746,477h150.56V388.619l-150.56-82.7Z" transform="translate(476.757 512.375)" fill="#fff"/><path d="M667.043,70.043h-3.329V50.192H64.5v19.85H61.175V46.864H667.043Z" transform="translate(104.38 79.961)" fill="#fff"/><path d="M164.353,298.7l-2.346-2.36,28.873-28.719,28.87,28.719L217.4,298.7,190.88,272.314Z" transform="translate(276.425 456.63)" fill="#fff"/><path d="M75.914,1076.049l-49.032-7.277.246-1.643,97.125-654.838,49.032,7.272-.249,1.645Zm-45.249-10.078,42.445,6.295,96.391-649.9-42.445-6.292Z" transform="translate(45.868 703.474)" fill="#fff"/><path d="M361.806,1076.048l-.244-1.646L264.435,419.564l49.032-7.274.244,1.648,97.127,654.835ZM268.218,422.365l96.391,649.9,42.445-6.3-96.391-649.9Z" transform="translate(451.194 703.472)" fill="#fff"/><path d="M853.786,667.064l50.055-38.345,25.184,34.34-66.455,51.89L70.065,713.7,4.6,663.051l25.182-34.331,49.614,38,.444.344Zm-1.131-3.326H80.971L29.108,624.013,0,663.7,68.928,717.03l794.21,1.248h.576l69.908-54.582-29.1-39.682Z" transform="translate(0 1064.725)" fill="#fff"/><path d="M234.532,452.592h-77.02V423.253h77.02Zm-73.691-3.329H231.2V426.582H160.841Z" transform="translate(268.756 722.178)" fill="#fff"/><path d="M209.431,441.507H169.379l-7.672-16.495,3.017-1.4,6.779,14.57h35.8l6.779-14.57,3.015,1.4Z" transform="translate(275.913 722.783)" fill="#fff"/><rect width="10.113" height="49.849" transform="translate(259.957 1147.095)" fill="#fff"/><rect width="10.113" height="49.849" transform="translate(661.65 1147.095)" fill="#fff"/><rect width="495.615" height="3.613" transform="translate(219.496 1195.664)" fill="#fff"/><g clip-path="url(#a)"><path d="M85.9,423.868v72.246c0,6.5,3.613,5.058,11.558,5.058s84.156.208,105.26.723c29.712.723,43.652,30.342,43.652,45.533,0,6.522,2.557,7.207,7.58,7.207H268.4V540.908H258.286s-7.716-48.2-55.4-50.907c-22.925-1.3-41.127-.75-64.247-.75H101.071c-2.168,0-3.613-3.973-3.613-9.031V423.868Z" transform="translate(146.567 723.227)" fill="#fff"/><path d="M165.97,275.02a5.6,5.6,0,1,1,5.6-5.6,5.6,5.6,0,0,1-5.6,5.6m0-7.867a2.269,2.269,0,1,0,2.268,2.268,2.271,2.271,0,0,0-2.268-2.268" transform="translate(273.637 450.151)" fill="#fff"/><path d="M186.85,448.834H167.99v-15.97h18.86ZM171.319,445.5h12.205V436.19H171.319Z" transform="translate(286.634 738.577)" fill="#fff"/><path d="M193.332,449.555H166.521V439h26.811Zm-23.482-3.326H190v-3.9H169.85Z" transform="translate(284.127 749.051)" fill="#fff"/><path d="M170.933,449.555H160.381V439h10.552Zm-7.223-3.326h3.9v-3.9h-3.9Z" transform="translate(273.651 749.051)" fill="#fff"/><path d="M189.755,449.555H179.2V439h10.552Zm-7.226-3.326h3.9v-3.9h-3.9Z" transform="translate(305.766 749.051)" fill="#fff"/><path d="M256.525,538.924H152.773V441.672H256.525ZM156.1,535.6H253.2V445H156.1Z" transform="translate(260.67 753.605)" fill="#fff"/><rect width="67.218" height="73.691" transform="translate(431.583 1196.944)" fill="#fff"/><rect width="19.967" height="3.331" transform="matrix(0.863, -0.505, 0.505, 0.863, 490.663, 1145.655)" fill="#fff"/><path d="M201.6,476.494l-1.683-2.874,33.125-19.409,1.683,2.874Zm66.249-38.818-1.683-2.874,33.125-19.409,1.683,2.874ZM334.1,398.857l-1.683-2.874,33.125-19.409,1.683,2.874Z" transform="translate(341.106 642.531)" fill="#fff"/><rect width="19.967" height="3.331" transform="matrix(0.863, -0.505, 0.505, 0.863, 739.767, 999.695)" fill="#fff"/><rect width="3.329" height="19.969" transform="translate(175.92 992.469) rotate(-59.257)" fill="#fff"/><path d="M246.263,476.351l-32.575-19.377,1.7-2.861,32.575,19.377ZM181.112,437.6l-32.575-19.377,1.7-2.86,32.575,19.377Zm-65.153-38.754L83.384,379.467l1.7-2.86,32.575,19.377Z" transform="translate(142.274 642.588)" fill="#fff"/><rect width="3.329" height="19.967" transform="matrix(0.511, -0.859, 0.859, 0.511, 421.116, 1138.316)" fill="#fff"/><path d="M634.127,706.491l-19.6-18.657,1.865-1.962,19.6,18.657Zm-39.208-37.314L575.312,650.52l1.867-1.959,19.6,18.654Zm-39.211-37.311-19.6-18.657,1.867-1.959,19.6,18.654ZM516.5,594.555l-19.6-18.657,1.865-1.959,19.6,18.654Zm-39.208-37.311-19.6-18.657,1.865-1.962,19.6,18.657ZM438.078,519.93l-19.6-18.654,1.867-1.962,19.6,18.657ZM398.87,482.621l-19.6-18.657L381.133,462l19.6,18.654ZM359.662,445.31l-19.6-18.657,1.865-1.959,19.6,18.654ZM320.451,408l-19.6-18.657,1.865-1.962,19.6,18.657ZM281.24,370.688l-19.6-18.657,1.867-1.962,19.6,18.657Zm-39.208-37.314-19.6-18.654,1.865-1.962L243.9,331.414Zm-39.208-37.311-19.6-18.654,1.865-1.962,19.6,18.657Zm-39.208-37.311L144.005,240.1l1.867-1.962,19.607,18.657ZM124.4,221.44l-19.6-18.654,1.867-1.962,19.6,18.657ZM85.193,184.129l-19.6-18.657,1.865-1.959,19.6,18.654Z" transform="translate(111.912 278.995)" fill="#fff"/><path d="M279.967,650.289h-2.706V623.226h2.706Zm0-54.125h-2.706V569.1h2.706Zm0-54.125h-2.706V514.976h2.706Zm0-54.125h-2.706V460.851h2.706Zm0-54.125h-2.706V406.726h2.706Zm0-54.125h-2.706V352.6h2.706Zm0-54.125h-2.706V298.475h2.706Zm0-54.125h-2.706V244.35h2.706Zm0-54.125h-2.706V198.731h2.706Z" transform="translate(473.078 339.086)" fill="#fff"/><path d="M172.51,481.366H169.8V454.3h2.706Zm0-54.125H169.8V400.178h2.706Zm0-54.125H169.8V346.053h2.706Zm0-54.125H169.8V291.928h2.706Zm0-54.125H169.8V237.8h2.706Zm0-54.125H169.8V183.678h2.706Zm0-54.125H169.8V134.93h2.706Z" transform="translate(289.729 230.225)" fill="#fff"/><rect width="2.706" height="13.531" transform="translate(232.798 189.906)" fill="#fff"/><path d="M88.728,757.469H86.022V730.575h2.706Zm0-53.79H86.022V676.785h2.706Zm0-53.79H86.022V623h2.706Zm0-53.787H86.022V569.209h2.706Zm0-53.789H86.022V515.419h2.706Zm0-53.79H86.022V461.63h2.706Zm0-53.787H86.022V407.843h2.706Zm0-53.79H86.022V354.053h2.706Zm0-53.787H86.022V300.266h2.706Zm0-53.79H86.022V246.477h2.706Zm0-53.789H86.022V192.687h2.706Zm0-53.787H86.022V138.9h2.706Zm0-53.79H86.022V85.111h2.706Z" transform="translate(146.775 145.221)" fill="#fff"/><path d="M98.287,365.142l-12.265-7.35v-14.3h2.706V356.26l10.949,6.563Z" transform="translate(146.775 586.089)" fill="#fff"/><path d="M207.417,423l-21.764-13.041,1.391-2.319,21.764,13.042ZM163.89,396.91l-21.764-13.047,1.391-2.319,21.764,13.044Zm-43.53-26.088L98.6,357.778l1.391-2.322L121.751,368.5Z" transform="translate(168.23 606.499)" fill="#fff"/><rect width="2.706" height="13.53" transform="matrix(0.514, -0.858, 0.858, 0.514, 397.413, 1042.541)" fill="#fff"/><path d="M146.807,401.149l-.566-2.649,13.055-2.766-3.713-12.82,2.6-.75,4.519,15.612Z" transform="translate(249.525 652.071)" fill="#fff"/><rect width="2.706" height="13.531" transform="translate(344.322 189.906)" fill="#fff"/><path d="M129.938,322.984h-2.706V296.536h2.706Zm0-52.9h-2.706V243.639h2.706Zm0-52.9h-2.706V190.743h2.706Zm0-52.9h-2.706V137.843h2.706Zm0-52.9h-2.706V84.947h2.706Z" transform="translate(217.09 144.941)" fill="#fff"/><path d="M137.489,206.486l-10.257-9.694V182.679h2.706v12.947l9.41,8.893Z" transform="translate(217.09 311.696)" fill="#fff"/><rect width="2.707" height="15.394" transform="matrix(0.687, -0.727, 0.727, 0.687, 365.769, 528.755)" fill="#fff"/><rect width="2.707" height="13.531" transform="translate(388.149 549.902) rotate(-46.629)" fill="#fff"/><path d="M142.187,217.108l.019-2.709,13.345.111-.866-13.318,2.7-.173,1.05,16.221Z" transform="translate(242.607 342.99)" fill="#fff"/><rect width="2.706" height="13.531" transform="translate(680.399 189.906)" fill="#fff"/><path d="M254.123,772.283h-2.706V744.8h2.706Zm0-54.956h-2.706V689.848h2.706Zm0-54.956h-2.706V634.892h2.706Zm0-54.959h-2.706V579.936h2.706Zm0-54.956h-2.706V524.98h2.706Zm0-54.956h-2.706V470.024h2.706Zm0-54.956h-2.706V415.068h2.706Zm0-54.956h-2.706V360.109h2.706Zm0-54.956h-2.706V305.153h2.706Zm0-54.959h-2.706V250.195h2.706Zm0-54.956h-2.706V195.239h2.706Zm0-54.956h-2.706V140.283h2.706Zm0-54.956h-2.706V85.327h2.706Z" transform="translate(428.982 145.59)" fill="#fff"/><path d="M248.7,370.806l-1.359-2.341,11.033-6.395V349.321h2.706v14.311Z" transform="translate(422.025 596.031)" fill="#fff"/><path d="M203.355,422.359,202,420.016l20.451-11.845,1.359,2.341Zm40.905-23.7L242.9,396.32l20.449-11.848,1.359,2.341Zm40.9-23.7-1.359-2.341,20.454-11.848,1.359,2.341Z" transform="translate(344.657 615.571)" fill="#fff"/><rect width="13.532" height="2.707" transform="translate(514.494 1054.225) rotate(-30.129)" fill="#fff"/><path d="M194.176,384.782l2.59.79-3.9,12.76,13.012,2.961-.6,2.641-15.848-3.61Z" transform="translate(323.205 656.536)" fill="#fff"/><rect width="2.706" height="13.531" transform="translate(568.877 189.906)" fill="#fff"/><path d="M212.914,488.145h-2.706V461.277h2.706Zm0-53.738h-2.706v-26.87h2.706Zm0-53.738h-2.706V353.8h2.706Zm0-53.741h-2.706v-26.87h2.706Zm0-53.738h-2.706v-26.87h2.706Zm0-53.741h-2.706V192.581h2.706Zm0-53.738h-2.706V138.84h2.706Zm0-53.738h-2.706V85.1h2.706Z" transform="translate(358.668 145.206)" fill="#fff"/><path d="M220.172,268.017l-9.964-9.964V243.961h2.706v12.971l9.171,9.172Z" transform="translate(358.668 416.259)" fill="#fff"/><rect width="2.706" height="14.241" transform="translate(588.909 694.344) rotate(-45)" fill="#fff"/><rect width="2.706" height="13.531" transform="translate(609.049 714.484) rotate(-45.008)" fill="#fff"/><path d="M223.707,277.61l.1-2.706,13.334.487-.487-13.336,2.706-.095.59,16.243Z" transform="translate(381.7 446.97)" fill="#fff"/><path d="M129.938,528.317h-2.706V501.255h2.706Zm0-54.125h-2.706V447.129h2.706Zm0-54.125h-2.706V393h2.706Zm0-54.125h-2.706V338.879h2.706Zm0-54.125h-2.706V284.754h2.706Zm0-54.125h-2.706V230.629h2.706Zm0-54.125h-2.706V187.678h2.706Z" transform="translate(217.09 320.227)" fill="#fff"/><path d="M145.777,311.4l-1.981-1.846-9.085,9.775-9.085-9.775-1.984,1.846,11.069,11.9Z" transform="translate(210.965 528.178)" fill="#fff"/><path d="M212.914,476.822h-2.706V449.759h2.706Zm0-54.125h-2.706V395.634h2.706Zm0-54.125h-2.706V341.509h2.706Zm0-54.125h-2.706V287.384h2.706Zm0-54.125h-2.706V247.87h2.706Z" transform="translate(358.668 422.93)" fill="#fff"/><path d="M228.754,330.321l-1.981-1.846-9.085,9.775-9.085-9.775-1.984,1.846,11.069,11.9Z" transform="translate(352.545 560.462)" fill="#fff"/><rect width="603.162" height="2.706" transform="translate(166.908 38.913)" fill="#fff"/><rect width="2.706" height="17.591" transform="translate(165.555 31.471)" fill="#fff"/><rect width="2.706" height="17.591" transform="translate(768.717 31.471)" fill="#fff"/><path d="M178.535,17.075h-9.927V15.268a4.479,4.479,0,0,1,.284-1.5,6.5,6.5,0,0,1,1.091-1.792q.8-.99,1.7-1.913L172.8,8.924c.227-.233.717-.771,1.478-1.616a11.558,11.558,0,0,0,1.5-1.946,2.794,2.794,0,0,0,.365-1.331A1.863,1.863,0,0,0,175.3,2.4a3.289,3.289,0,0,0-1.9-.576,7.491,7.491,0,0,0-1.35.138,10.282,10.282,0,0,0-1.3.322c-.374.124-.977.376-1.816.758V1.293A10.427,10.427,0,0,1,171.6.421a12.98,12.98,0,0,1,2.206-.238A6.431,6.431,0,0,1,176.161.6a3.076,3.076,0,0,1,1.6,1.3,3.583,3.583,0,0,1,.522,1.87,4.529,4.529,0,0,1-.674,2.273,15.83,15.83,0,0,1-2.533,2.99l-1.207,1.2-1.012.993A12.182,12.182,0,0,0,171.3,13.1a4.3,4.3,0,0,0-.655,2.168h7.886Z" transform="translate(287.688 0.312)" fill="#fff"/><path d="M175.073,9.38a6.382,6.382,0,0,1,1.886-1.846,4.56,4.56,0,0,1,2.479-.712,4.988,4.988,0,0,1,2.428.622,4.248,4.248,0,0,1,1.748,1.74,5.359,5.359,0,0,1,.6,2.6,6.007,6.007,0,0,1-1.5,4.065,4.947,4.947,0,0,1-3.938,1.727,4.672,4.672,0,0,1-4.3-2.4,11.881,11.881,0,0,1-1.421-6.116,10.494,10.494,0,0,1,1.808-6.484,5.814,5.814,0,0,1,4.9-2.384,10.867,10.867,0,0,1,3.223.484V2.658a7.725,7.725,0,0,0-3.31-.836,3.765,3.765,0,0,0-3.4,2.019,9.859,9.859,0,0,0-1.207,5.118Zm3.859,6.555a3.142,3.142,0,0,0,1.6-.471,3.2,3.2,0,0,0,1.264-1.448,4.952,4.952,0,0,0,.46-2.13,3.785,3.785,0,0,0-.779-2.463,2.677,2.677,0,0,0-2.214-.963,3.074,3.074,0,0,0-2.446,1.115,4.022,4.022,0,0,0-.958,2.712,3.741,3.741,0,0,0,.936,2.628,2.828,2.828,0,0,0,2.141,1.02" transform="translate(295.293 0.314)" fill="#fff"/><path d="M178.963,7.706V6.386a2.711,2.711,0,0,0,1.158-.568,2.647,2.647,0,0,0,.633-.944,3.615,3.615,0,0,0,.238-1.394,1.781,1.781,0,0,1-1.448-.557,1.807,1.807,0,0,1-.465-1.177A1.654,1.654,0,0,1,179.6.5,1.683,1.683,0,0,1,180.8,0a1.953,1.953,0,0,1,1.532.766,3.152,3.152,0,0,1,.644,2.095,4.879,4.879,0,0,1-.506,2.2,5.342,5.342,0,0,1-1.38,1.751,4.091,4.091,0,0,1-2.13.9" transform="translate(305.357 -0.002)" fill="#fff"/><path d="M378.9,50.634V49.165a9.278,9.278,0,0,1,.392-2.9,10.9,10.9,0,0,1,1.372-2.612c.658-.958,1.185-1.7,1.575-2.219l1.708-2.268.62-.79a10.055,10.055,0,0,0,1.2-2.176h-8.509V34.229h10.411v1.31a3.321,3.321,0,0,1-.311,1.448,24.459,24.459,0,0,1-1.886,2.844q-.382.52-.747,1.039l-1.1,1.537c-.709.993-1.226,1.789-1.564,2.379a7.854,7.854,0,0,0-.766,1.851,10.122,10.122,0,0,0-.26,2.528v1.469Z" transform="translate(643.714 58.403)" fill="#fff"/><path d="M386.017,49V36.343a15.181,15.181,0,0,1-1.724,1.2A13.5,13.5,0,0,1,382,38.554V36.776a13.871,13.871,0,0,0,4.016-2.547h1.968V49h3.943v1.637H382V49Z" transform="translate(651.791 58.403)" fill="#fff"/><path d="M387.563,41.572V40.252a2.711,2.711,0,0,0,1.158-.568,2.647,2.647,0,0,0,.633-.944,3.615,3.615,0,0,0,.238-1.394,1.784,1.784,0,0,1-1.448-.557,1.821,1.821,0,0,1-.466-1.177,1.665,1.665,0,0,1,.517-1.242,1.693,1.693,0,0,1,1.207-.5,1.95,1.95,0,0,1,1.532.766,3.138,3.138,0,0,1,.644,2.095,4.88,4.88,0,0,1-.506,2.2,5.342,5.342,0,0,1-1.38,1.751,4.082,4.082,0,0,1-2.13.9" transform="translate(661.281 57.782)" fill="#fff"/></g></svg>