<?xml version="1.0" encoding="UTF-8"?>
<svg id="Layer_2" data-name="Layer 2" xmlns="http://www.w3.org/2000/svg" viewBox="0 0 276.34 430.74">
  <defs>
    <style>
      .cls-1 {
        stroke-dasharray: 0 0 9.38 9.38;
      }

      .cls-1, .cls-2, .cls-3, .cls-4, .cls-5, .cls-6, .cls-7, .cls-8, .cls-9 {
        fill: none;
        stroke: #fff;
        stroke-miterlimit: 10;
      }

      .cls-2 {
        stroke-dasharray: 0 0 10.13 10.13;
      }

      .cls-3 {
        stroke-dasharray: 0 0 10.15 10.15;
      }

      .cls-10 {
        fill: #fff;
      }

      .cls-11 {
        fill: #4e6283;
      }

      .cls-4 {
        stroke-dasharray: 0 0 9.94 9.94;
      }

      .cls-5 {
        stroke-dasharray: 0 0 10.27 10.27;
      }

      .cls-6 {
        stroke-dasharray: 0 0 10 10;
      }

      .cls-8 {
        stroke-dasharray: 0 0 8.73 8.73;
      }

      .cls-9 {
        stroke-dasharray: 0 0 9.78 9.78;
      }
    </style>
  </defs>
  <g id="graphic">
    <g id="feeder">
      <g id="fills">
        <g id="split">
          <polygon id="full" class="cls-11" points="4.49 4.59 217.97 4.59 218.77 319.81 119.61 376.74 101.37 376.74 3.8 318.43 4.49 4.59"/>
          <g>
            <line class="cls-7" x1="25.35" y1="26.82" x2="25.35" y2="31.82"/>
            <line class="cls-4" x1="25.35" y1="41.75" x2="25.35" y2="295.17"/>
            <polyline class="cls-7" points="25.35 300.14 25.35 305.14 29.64 307.71"/>
            <line class="cls-1" x1="37.68" y1="312.53" x2="81.91" y2="339.04"/>
            <line class="cls-7" x1="85.93" y1="341.45" x2="90.22" y2="344.02"/>
            <polygon class="cls-10" points="85.28 345.82 85.07 344.84 89.89 343.82 88.52 339.08 89.48 338.81 91.15 344.58 85.28 345.82"/>
          </g>
          <g>
            <line class="cls-6" x1="66.59" y1="274.11" x2="66.59" y2="26.61"/>
            <polygon class="cls-10" points="70.68 270.8 69.95 270.12 66.59 273.73 63.23 270.12 62.5 270.8 66.59 275.2 70.68 270.8"/>
          </g>
          <g>
            <line class="cls-7" x1="153.92" y1="25.21" x2="153.92" y2="30.21"/>
            <polyline class="cls-9" points="153.92 39.99 153.92 196.73 176.14 222.46"/>
            <line class="cls-7" x1="179.34" y1="226.16" x2="182.61" y2="229.95"/>
            <polygon class="cls-10" points="177.34 230.11 177.45 229.12 182.35 229.66 182.53 224.73 183.53 224.77 183.31 230.77 177.34 230.11"/>
          </g>
        </g>
        <g id="gravity">
          <polygon id="gravity-2" data-name="gravity" class="cls-11" points="4.46 5.2 218.41 5.2 218.41 320.57 4.69 110.26 4.46 5.2"/>
          <g>
            <line class="cls-7" x1="153.92" y1="17.94" x2="153.92" y2="22.94"/>
            <polyline class="cls-2" points="153.92 33.07 153.92 196.73 176.03 222.33"/>
            <line class="cls-7" x1="179.34" y1="226.16" x2="182.61" y2="229.95"/>
            <polygon class="cls-10" points="177.34 230.11 177.45 229.12 182.35 229.66 182.53 224.73 183.53 224.77 183.31 230.77 177.34 230.11"/>
          </g>
          <g>
            <line class="cls-7" x1="58.44" y1="17.94" x2="58.44" y2="22.94"/>
            <polyline class="cls-5" points="58.44 33.21 58.44 112.91 70.11 126.42"/>
            <line class="cls-7" x1="73.47" y1="130.3" x2="76.73" y2="134.09"/>
            <polygon class="cls-10" points="71.47 134.25 71.58 133.26 76.48 133.8 76.66 128.87 77.66 128.91 77.44 134.91 71.47 134.25"/>
          </g>
        </g>
        <g id="timer">
          <polygon id="full-2" data-name="full" class="cls-11" points="4.49 4.59 217.97 4.59 218.77 319.81 119.61 376.74 101.37 376.74 3.8 318.43 4.49 4.59"/>
          <g>
            <line class="cls-7" x1="25.35" y1="26.82" x2="25.35" y2="31.82"/>
            <line class="cls-4" x1="25.35" y1="41.75" x2="25.35" y2="295.17"/>
            <polyline class="cls-7" points="25.35 300.14 25.35 305.14 29.64 307.71"/>
            <line class="cls-1" x1="37.68" y1="312.53" x2="81.91" y2="339.04"/>
            <line class="cls-7" x1="85.93" y1="341.45" x2="90.22" y2="344.02"/>
            <polygon class="cls-10" points="85.28 345.82 85.07 344.84 89.89 343.82 88.52 339.08 89.48 338.81 91.15 344.58 85.28 345.82"/>
          </g>
          <g>
            <line class="cls-7" x1="190.74" y1="26.82" x2="190.74" y2="31.82"/>
            <line class="cls-3" x1="190.74" y1="41.97" x2="190.74" y2="300.89"/>
            <polyline class="cls-7" points="190.74 305.96 190.74 310.96 186.42 313.47"/>
            <line class="cls-8" x1="178.86" y1="317.85" x2="137.29" y2="341.93"/>
            <line class="cls-7" x1="133.51" y1="344.12" x2="129.19" y2="346.62"/>
            <polygon class="cls-10" points="130.01 341.42 130.96 341.72 129.52 346.43 134.33 347.52 134.1 348.5 128.25 347.17 130.01 341.42"/>
          </g>
          <g>
            <line class="cls-6" x1="149.53" y1="274.11" x2="149.53" y2="26.61"/>
            <polygon class="cls-10" points="153.62 270.8 152.89 270.12 149.53 273.73 146.18 270.12 145.44 270.8 149.53 275.2 153.62 270.8"/>
          </g>
          <g>
            <line class="cls-6" x1="66.59" y1="274.11" x2="66.59" y2="26.61"/>
            <polygon class="cls-10" points="70.68 270.8 69.95 270.12 66.59 273.73 63.23 270.12 62.5 270.8 66.59 275.2 70.68 270.8"/>
          </g>
        </g>
      </g>
      <g id="outline">
        <path class="cls-10" d="m219.47,377.62H3.53V3.98h215.94v373.64Zm-214.71-1.23h213.48V5.2H4.76v371.18Z"/>
        <rect class="cls-10" x="110.89" y="4.59" width="1.23" height="186.21"/>
        <path class="cls-10" d="m276.34,319.95h-58.09v-66.53l58.09,31.91v34.62Zm-56.86-1.23h55.63v-32.66l-55.63-30.56v63.22Z"/>
        <polygon class="cls-10" points="223.88 8.56 222.65 8.56 222.65 1.23 1.23 1.23 1.23 8.56 0 8.56 0 0 223.88 0 223.88 8.56"/>
        <path class="cls-10" d="m124.8,387.23h-28.46v-10.84h28.46v10.84Zm-27.23-1.23h26v-8.38h-26v8.38Z"/>
        <polygon class="cls-10" points="118.17 383.36 103.37 383.36 100.53 377.26 101.65 376.74 104.15 382.13 117.38 382.13 119.89 376.74 121 377.26 118.17 383.36"/>
        <rect class="cls-10" x="34.88" y="377" width="3.74" height="18.42"/>
        <rect class="cls-10" x="183.31" y="377" width="3.74" height="18.42"/>
        <rect class="cls-10" x="19.93" y="394.95" width="183.14" height="1.33"/>
        <path class="cls-10" d="m24.72,377v26.7c0,2.4,1.33,1.87,4.27,1.87s31.1.08,38.9.27c10.98.27,16.13,11.21,16.13,16.82,0,2.41.95,2.66,2.8,2.66h5.34v-5.07h-3.74s-2.85-17.81-20.47-18.81c-8.47-.48-15.2-.28-23.74-.28h-13.88c-.8,0-1.33-1.47-1.33-3.34v-20.82h-4.27Z"/>
        <g>
          <path class="cls-10" d="m113.78,391.9h-6.97v-5.9h6.97v5.9Zm-5.74-1.23h4.51v-3.44h-4.51v3.44Z"/>
          <path class="cls-10" d="m115.25,396.04h-9.91v-3.9h9.91v3.9Zm-8.68-1.23h7.45v-1.44h-7.45v1.44Z"/>
          <path class="cls-10" d="m103.11,396.04h-3.9v-3.9h3.9v3.9Zm-2.67-1.23h1.44v-1.44h-1.44v1.44Z"/>
          <path class="cls-10" d="m121.93,396.04h-3.9v-3.9h3.9v3.9Zm-2.67-1.23h1.44v-1.44h-1.44v1.44Z"/>
        </g>
        <path class="cls-10" d="m129.94,430.74h-38.34v-35.94h38.34v35.94Zm-37.11-1.23h35.88v-33.48h-35.88v33.48Z"/>
        <rect class="cls-10" x="98.3" y="395.42" width="24.84" height="27.23"/>
        <polygon class="cls-10" points="120.75 377.53 120.13 376.47 218.54 319.42 219.16 320.48 120.75 377.53"/>
        <rect class="cls-10" x="51.81" y="291.32" width="1.23" height="113.33" transform="translate(-273.29 214.76) rotate(-59.19)"/>
        <path class="cls-10" d="m101.27,216.69c-1.14,0-2.07-.93-2.07-2.07s.93-2.07,2.07-2.07,2.07.93,2.07,2.07-.93,2.07-2.07,2.07Zm0-2.91c-.46,0-.84.38-.84.84s.38.84.84.84.84-.38.84-.84-.38-.84-.84-.84Z"/>
        <polygon class="cls-10" points="99.66 228.59 98.8 227.72 110.46 217.11 121.13 227.88 120.27 228.76 110.46 218.84 99.66 228.59"/>
      </g>
    </g>
  </g>
</svg>